<!--?xml version="1.0" encoding="iso-8859-1"?-->
<!-- Generator: Adobe Illustrator 22.1.0, SVG Export Plug-In . SVG Version: 6.00 Build 0)  -->
<svg version="1.1" id="_x33_" xmlns="http://www.w3.org/2000/svg" xmlns:xlink="http://www.w3.org/1999/xlink" x="0px" y="0px" viewBox="0 0 512 512" style="width: 720px;" xml:space="preserve">
<style type="text/css">
 .st0{fill:#94C85C;}
 .st1{fill:#FFFFFF;}
</style>

<g id="svgID1">
	<path class="st0" d="M139.841,94.809c6.272-14.03,3.231-36.829,7.483-47.674c4.252-10.845,11.883-33.165,31.829-31.11
		s27.088,33.254,36.744,41.787c9.656,8.533,10.392,13.622,28.605,14.532c18.213,0.91,54.26,0.233,54.26,0.233
		s8.874-35.129,38.94-40.398c30.066-5.269,29.209,20.028,33.206,30.542c3.998,10.513,14.413,24.955,25.486,38.377
		c11.073,13.422,49.53,66.398,59.463,110.907c24.063,38.327,55.436,157.544,49.464,194.633c-5.973,37.09-25.94,78.073-80.863,84.957
		c-54.923,6.884-88.137-15.845-104.995-24.493c-16.857-8.648-107.654-43.685-126.814-48.101
		c-19.16-4.415-37.215-14.028-40.478-10.044c-3.263,3.984-42.493,50.704-76.329,51.616c-33.836,0.912-43.683,1.326-57.794-8.202
		s-7.779-56.541-10.945-69.682c-3.166-13.141,21.665-48.318,29.119-57.664c7.454-9.346,25.122-22.803,36.599-33.294
		c11.477-10.492,29.175-33.573,29.175-65.699c0-18.972-20.342-48.304-26.153-50.259c-5.811-1.955-28.07-6.708-45.572-21.267
		c-17.503-14.56,5.149-26.323,15.608-30.229C56.337,120.371,139.841,94.809,139.841,94.809z" style="opacity: 1;"></path>
	<path class="st1" d="M108.967,187.633c5.299,4.415,9.975,42.441,8.52,51.246c-1.455,8.804,53.644,29.909,72.456,27.746
		c18.813-2.163,43.428-19.746,63.795-23.318c20.366-3.572,30.081-1.451,26.548,5.878c-3.532,7.329-22.975,13.539-29.591,18.382
		c-6.616,4.843-8.898,7.98-8.898,7.98s0.493,7.951,0.063,12.563c-0.43,4.612,5.485,11.869,5.177,26.785
		c-0.308,14.916-6.787,29.158-19.002,31.31c-12.215,2.151-19.279-1.729-23.695,1.094c-4.415,2.823,16.779,9.21,16.779,9.21
		s98.906,27.46,132.463,22.9c-19.428-17.806-47.157-58.656-36.825-95.632c10.332-36.976,24.571-57.287,12.595-61.702
		c-11.976-4.415-53.2-17.949-94.404-21.779c-41.204-3.83-81.123-8.262-97.812-8.254
		C120.447,192.048,108.967,187.633,108.967,187.633z" style="opacity: 1;"></path>
	<path d="M147.167,35.757c1.988-4.037,4.557-8.127,7.886-11.942c3.323-3.843,7.537-7.229,12.701-9.599
		c1.341-0.534,2.6-1.228,4.129-1.457c1.486-0.272,2.934-0.772,4.513-0.664c1.555,0.003,3.135-0.09,4.648,0.333l2.296,0.491
		c0.755,0.191,1.431,0.54,2.152,0.812c5.717,2.349,10.077,6.395,13.783,10.587c3.702,4.244,6.82,8.821,9.683,13.46
		c1.404,2.324,2.796,4.658,4.108,7l1.961,3.5l0.967,1.75l0.887,1.525c4.887,8.003,12.979,13.543,21.688,15.51
		c8.965,2.197,17.302,2.265,24.319,2.907c7.027,0.537,12.688,1.546,16.733,2.67c4.066,1.096,6.574,2.222,7.736,2.84
		c1.164,0.608,0.985,0.762-0.458,0.389c-2.886-0.784-7.452-1.111-14.831-0.981c-3.698,0.056-8.1,0.296-13.496,0.478
		c-5.383,0.139-11.878,0.281-19.509-1.139c-7.675-1.306-14.841-4.738-20.235-9.327c-2.711-2.306-5.053-4.87-7.004-7.571
		c-0.95-1.343-1.852-2.79-2.603-4.102c-0.742-1.278-1.47-2.531-2.182-3.756c-5.696-9.744-11.114-17.226-15.817-21.531
		c-2.333-2.167-3.894-3.293-5.276-4.358c-0.716-0.457-1.383-0.917-2.106-1.441c-0.755-0.386-1.572-0.802-2.543-1.296
		c-1.99-0.589-4.722-1.574-9.097-0.188c-4.278,1.454-10.4,5.198-15.459,13.491c-5.037,8.337-7.168,16.195-8.731,22.155
		c-1.448,6.037-2.154,10.423-2.732,13.204c-0.991,5.583-2.231,4.775-2.542-1.299c-0.263-6.034,0.191-14.17,1.402-20.791
		C145.332,40.8,147.167,35.757,147.167,35.757z"></path>
	<path d="M303.866,49.908c3.471-4.229,7.708-8.46,12.773-12.235c5.063-3.753,10.956-7.121,17.779-9.043
		c1.684-0.515,3.508-0.747,5.285-1.071c1.836-0.059,3.732-0.367,5.533-0.114c1.824,0.173,3.636,0.207,5.485,0.772
		c0.919,0.232,1.84,0.444,2.749,0.716l2.661,1.17l1.314,0.614l1.211,0.812c0.796,0.556,1.618,1.087,2.364,1.685
		c1.349,1.33,2.826,2.599,3.825,4.111c2.305,2.892,3.667,6.022,4.922,8.994c2.241,5.997,3.242,10.994,4.163,15.062
		c0.905,4.04,1.56,7.222,2.162,9.55c1.211,4.645,1.417,6.337,0.541,4.775c-0.837-1.556-2.803-3.562-5.075-7.577
		c-1.174-1.985-2.368-4.469-3.621-7.485c-1.268-3.012-2.505-6.596-4.103-10.574c-1.592-3.979-3.567-7.438-6.033-9.898
		c-0.659-0.559-1.212-1.228-1.909-1.673c-0.691-0.441-1.369-0.876-2.035-1.306c-1.491-0.571-2.817-1.309-4.338-1.485
		c-5.989-1.228-10.986-0.022-14.401,1.488c-3.424,1.519-4.445,1.83-7.266,2.944c-0.719,0.247-1.503,0.654-2.462,1.154
		c-0.963,0.491-2.107,1.074-3.386,1.966c-2.632,1.645-6.013,4.281-9.929,8.685c-7.731,8.969-10.04,15.565-11.589,18.578
		c-1.476,3.099-2.573,2.667-2.452-1.145c0.259-3.713,1.276-8.75,2.787-12.67c0.75-1.944,1.509-3.654,2.058-4.889
		C303.494,50.631,303.866,49.908,303.866,49.908z"></path>
	<path d="M103.616,112.617c43.58-12.969,55.896-29.081-7.993-10.812c-4.04,1.093-7.962,2.151-11.786,3.182
		c-1.957,0.515-3.888,1.025-5.796,1.528c-1.921,0.559-3.817,1.108-5.695,1.654c-7.443,2.269-14.445,4.701-21.23,7.346
		c-6.794,2.691-13.303,5.417-19.871,9.176c-1.603,0.935-3.405,2.031-4.958,3.352c-1.604,1.204-3.157,2.744-4.611,4.438
		c-0.683,0.991-1.395,1.895-1.98,2.991c-0.495,1.216-1.167,2.262-1.373,3.661c-0.736,2.642-0.344,5.543,0.469,7.948
		c1.857,4.778,5.086,7.639,8.174,10.161c3.164,2.475,6.512,4.466,9.978,6.269c6.928,3.611,14.318,6.537,22.203,9.34
		c15.78,5.448,33.536,10.769,54.824,14.664c21.27,3.867,42.405,5.799,62.879,7.438c20.48,1.651,40.345,3.12,59.19,5.698
		c18.889,2.497,36.56,6.207,52.997,11.189c16.404,4.843,31.388,10.602,44.231,17.528c6.262,3.392,11.503,6.55,15.912,9.152
		c4.344,2.679,7.82,4.843,10.5,6.272c5.209,2.994,7.61,2.71,5.658-1.441c-1.873-4.148-8.425-12.405-22.645-21.395
		c-7.094-4.448-16.094-8.901-27.023-12.898c-10.947-3.954-23.776-7.438-38.514-10.173c-15.891-2.982-28.419-4.229-39.617-5.37
		c-11.204-1.145-21.11-1.895-31.849-2.784c-10.706-0.818-22.258-1.701-36.77-2.809c-14.452-1.201-31.843-2.534-53.871-6.262
		c-17.562-2.966-34.2-7.951-49.935-13.871c-7.815-3.006-15.42-6.272-22.339-10.192c-3.444-1.957-6.739-4.074-9.546-6.435
		c-2.728-2.303-5.201-5.105-5.595-7.278c-0.341-1.09-0.112-1.87,0.282-2.855l0.366-0.744l0.612-0.772
		c0.33-0.534,0.939-1.04,1.495-1.559c2.354-2.096,5.37-3.75,8.81-5.281c6.818-3.049,14.094-5.565,21.265-7.901
		c7.188-2.324,14.409-4.457,21.497-6.315C89.151,116.7,96.581,114.666,103.616,112.617z"></path>
	<path d="M351.08,250.462c4.379,5.337,11.861,9.8,19.999,9.293c1.012-0.136,2.027-0.182,3.041-0.361
		c0.998-0.238,2.058-0.414,3.009-0.673c0.917-0.265,1.61-0.58,1.986-0.855c0.337-0.253,0.548-0.494,0.904-1.136
		c0.64-1.213,1.39-3.698,1.92-5.636c0.546-2.034,0.934-4.025,1.145-5.941c0.892-7.667-1.56-12.621-3.381-15.389
		c-1.929-2.691-2.937-3.688-1.69-3.142c1.113,0.627,3.299,0.945,6.138,3.312c1.372,1.188,2.872,2.898,4.034,5.346
		c1.171,2.442,1.932,5.648,1.826,9.309c-0.12,3.667-0.772,7.028-1.563,10.077c-0.417,1.528-0.781,2.938-1.407,4.522
		c-0.611,1.54-1.59,3.228-3.087,4.494c-1.464,1.235-2.991,1.883-4.293,2.361c-1.304,0.488-2.455,0.716-3.599,1.049
		c-1.12,0.355-2.229,0.494-3.26,0.679c-1.029,0.204-1.999,0.336-2.906,0.37c-1.814,0.185-2.993,0.105-4.048-0.124
		c-1.063-0.17-2.004-0.444-3.33-0.978c-1.34-0.469-3.066-1.198-5.54-2.497c-2.491-1.272-5.637-3.333-9.396-6.762
		c-3.731-3.475-5.891-6.883-7.286-9.584c-1.394-2.719-1.974-4.815-2.131-6.219c-0.317-2.806,0.95-2.874,2.532-0.747
		c1.617,2.12,4.106,4.685,6.349,6.414C349.252,249.416,351.08,250.462,351.08,250.462z"></path>
	<path d="M404.517,104.447c3.403,4.25,7.155,8.938,11.119,13.889c1.965,2.552,3.935,5.222,5.85,8.009
		c1.857,2.735,3.745,5.519,5.65,8.327c7.582,11.315,14.784,23.763,19.2,36.124c4.463,12.365,4.98,21.868,4.603,27.266
		c-0.591,5.457-1.315,6.985-1.39,5.087c-0.086-1.92-0.872-4.781-2.32-9.303c-1.523-4.515-3.565-10.676-6.875-19.38
		c-3.309-8.719-7.374-16.164-11.168-22.272c-3.804-6.111-7.337-10.923-10.059-14.402c-2.733-3.451-3.299-4.682-4.972-7.658
		c-1.69-2.969-4.452-7.735-13.06-17.855c-8.756-10.142-12.567-17.719-13.491-21.399c-0.98-3.722,0.376-3.685,2.613-0.657
		c2.287,3.022,5.772,6.673,8.806,9.429C402.039,102.422,404.517,104.447,404.517,104.447z"></path>
	<path d="M122.604,280.793c-3.698-4.059-8.438-8.698-12.76-14.216c-4.313-5.472-8.247-11.917-9.992-18.587
		c-1.749-6.688-0.914-11.707,0.022-14.361c0.969-2.701,1.763-3.358,1.725-2.423c0.06,1.975,2.232,5.784,4.654,14.093
		c2.739,8.491,7.739,14.09,10.826,16.908c1.595,1.41,1.829,1.978,2.637,3.451c0.889,1.41,2.284,3.806,6.86,8.312
		c4.594,4.469,6.95,7.642,7.631,9.614c0.687,1.963-0.274,2.654-1.965,1.719c-1.7-0.914-4.093-2.018-6.092-2.904
		C124.15,281.491,122.604,280.793,122.604,280.793z"></path>
	<path d="M149.461,251.453c6.233,3.074,13.324,5.969,21.091,7.627c7.754,1.679,16.136,2.139,24.584,1.182
		c2.113-0.195,4.22-0.642,6.339-0.948c2.068-0.373,4.033-0.892,6.025-1.5c3.957-1.266,7.806-3.056,11.626-5.071
		c7.616-4.022,15.266-9.003,23.717-12.084c4.175-1.587,8.566-2.506,12.428-2.71c3.902-0.238,7.401,0.083,10.46,0.552
		c6.124,0.994,10.584,2.432,13.919,3.377c6.612,1.92,8.667,2.698,6.167,2.494c-2.484-0.228-6.357-0.077-12.689-0.392
		c-3.156-0.117-6.913-0.355-11.307-0.225c-4.395,0.145-9.401,0.707-14.952,2.747c-11.336,4.219-20.422,11.315-29.562,15.571
		c-4.524,2.201-8.966,3.818-13.082,4.796c-4.046,0.886-7.564,1.602-10.65,1.963c-3.061,0.506-5.073,0.448-6.898,0.46
		c-1.829,0.034-3.487-0.256-5.903-0.534c-1.211-0.111-2.6-0.358-4.289-0.67c-1.697-0.262-3.683-0.633-6.056-1.216
		c-4.746-1.093-11.112-2.843-19.454-6.383c-8.338-3.546-14.479-7.195-19.112-10.111c-4.624-2.945-7.704-5.275-9.564-6.901
		c-3.706-3.269-2.419-3.867,2.177-1.744c4.591,2.114,10.824,4.741,15.925,6.636C145.503,250.277,149.461,251.453,149.461,251.453z"></path>
	<path d="M261.739,263.771c-3.008,1.093-6.22,2.651-9.54,4.537c-1.661,0.944-3.352,1.954-5.067,3.025
		c-1.655,1.025-3.134,2.096-4.766,3.349c-6.419,4.982-13.125,10.973-20.696,14.818c-4.553,2.355-8.925,3.531-12.475,3.596
		c-1.731,0.16-3.333-0.247-4.551-0.42c-1.254-0.417-2.209-0.812-2.907-1.151l-1.637-0.79l0.488-0.75l0.117-0.154l0.109-0.031
		l0.439-0.096l0.229-0.09l-0.151,0.176l-0.162,0.228l0.004-0.028l-0.425-0.725c-0.067-0.395,0.132-0.232,0.603,0.062
		c0.34,0.191,0.383,0.077,0.499,0.744l0.041,0.232l0.123-0.012c0.679-0.071,1.509-0.228,2.467-0.404
		c0.963-0.268,2.073-0.636,3.317-1.111c2.514-0.957,5.576-2.583,9.81-4.883c4.931-2.79,9.017-6.114,12.417-9.062
		c3.396-2.969,6.144-5.611,8.28-7.602c2.09-1.966,3.179-2.395,5.153-3.244c2.08-0.824,5.241-2.512,12.986-6.229
		c7.863-3.627,13.249-3.895,15.694-3.457c2.494,0.478,2.316,1.704,0.149,2.624c-2.175,0.944-4.908,2.58-6.985,4.074
		C263.222,262.487,261.739,263.771,261.739,263.771z"></path>
	<path d="M248.699,282.139c-0.086,3.537-0.573,7.543-1.938,11.395c-1.326,3.846-3.474,7.537-6.294,10.118
		c-2.822,2.596-5.686,3.361-7.381,3.429c-1.751,0.034-2.418-0.463-1.992-0.713c0.942-0.602,1.049-3.938,4.041-7.096
		c3.055-3.408,4.031-7.142,3.953-9.21c-0.033-1.049,0.197-1.232,0.721-1.883c0.399-0.636,1.275-1.821,1.276-4.664
		c-0.06-2.75,0.127-4.479,0.733-5.753c0.61-1.25,1.641-1.741,2.428-0.892c0.84,0.796,1.958,1.985,2.924,3.127
		C248.028,281.201,248.699,282.139,248.699,282.139z"></path>
	<path d="M203.304,348.964c-3.426,2.077-6.674,5.497-9.62,9.429c-2.987,3.914-5.754,8.315-8.731,12.874
		c-1.511,2.281-3.026,4.608-4.849,6.948c-1.659,2.157-3.332,4.333-5.019,6.528c-3.307,4.414-6.588,9.006-9.969,13.673
		c-6.76,9.299-13.98,19.04-22.835,27.686c-8.638,8.549-18.017,16.914-28.786,23.769c-10.679,6.945-22.862,12.115-35.592,14.707
		c-12.757,2.54-25.761,2.914-38.574,0.985c-6.401-1.018-12.878-2.608-19.017-6.071c-3.05-1.735-5.984-4.188-8.155-6.997
		c-2.192-2.815-3.809-5.883-5.066-8.963c-2.496-6.185-3.591-12.395-4.554-18.337c-0.446-2.923-0.89-5.83-1.331-8.719
		c-0.466-2.608-1.027-6.093-1.165-9.142c-0.417-12.54,2.502-23.352,5.291-32.933c1.434-4.799,2.944-9.303,4.357-13.562
		c1.565-4.704,3.918-8.787,6.343-12.244c2.421-3.488,4.868-6.485,6.969-9.355c2.171-2.83,3.712-5.599,5.696-8.488
		c3.837-5.525,7.877-9.67,11.415-13.01c7.174-6.59,12.395-10.093,14.875-11.766c2.514-1.63,2.402-1.299-0.31,0.88
		c-2.699,2.207-5.951,5.13-9.858,9.219c-3.867,4.099-8.533,9.343-12.897,16.713c-1.099,1.815-2.053,3.849-3.313,5.994
		c-1.229,2.12-2.63,4.253-4.102,6.448c-2.921,4.389-6.236,9.022-8.318,14.59c-0.991,2.688-1.827,6.019-2.796,9.26
		c-0.949,3.284-1.897,6.695-2.801,10.256c-1.79,7.108-3.463,14.874-3.71,23.214c-0.062,2.077-0.008,4.139,0.189,6.154
		c0.168,2.043,0.529,3.901,0.916,6.111c0.735,4.25,1.298,8.364,2.033,12.349c1.454,7.892,3.5,15.544,7.894,20.939
		c4.254,5.367,11.161,7.784,17.865,9.272c6.769,1.435,13.578,1.883,20.049,1.846c12.962-0.173,24.658-2.546,34.356-6.429
		c9.773-3.753,17.601-8.8,23.909-13.46c6.278-4.75,10.113-8.099,13.628-11.185c3.502-3.08,6.726-5.954,11.2-10.281
		c4.418-4.299,9.891-10.405,17.568-20.639c3.857-5.114,8.238-11.278,13.752-18.519c1.377-1.778,2.809-3.623,4.299-5.546
		c1.387-1.809,2.757-3.867,4.179-6.04c2.847-4.349,5.847-9.235,9.702-14.281c3.902-4.948,8.345-9.759,14.587-12.145
		c0.773-0.253,1.59-0.562,2.319-0.738l2.13-0.454c1.409-0.25,2.815-0.488,4.174-0.605c2.738-0.299,5.337-0.352,7.749-0.441
		c4.862-0.114,8.888-0.546,12.135-2.17c3.26-1.577,5.79-4.278,7.916-6.988c4.118-5.583,6.256-11.5,7.49-16.414
		c0.3-1.241,0.541-2.432,0.722-3.568c0.175-1.056,0.204-1.988,0.16-3.022c-0.1-2.022-0.37-3.926-0.521-5.611
		c-0.35-3.37-0.176-5.985,0.453-7.457c0.63-1.475,1.231-1.747,1.254-1.361c0.083,0.407-0.242,1.469-0.092,3.333
		c0.096,1.867,0.718,4.466,1.439,7.901c0.335,1.729,0.717,3.559,0.68,5.642c-0.081,2.012-0.336,3.923-0.697,5.935
		c-0.735,3.985-1.963,8.059-3.752,11.982c-1.781,3.929-4.182,7.679-7.317,10.867c-3.085,3.266-7.433,5.42-11.497,6.377
		c-4.08,0.917-7.753,1.068-10.866,1.401c-3.123,0.293-5.732,0.735-7.856,1.241c-2.231,0.571-3.442,1.065-4.349,1.59
		C203.791,348.668,203.298,348.93,203.304,348.964z"></path>
	<path d="M96.338,198.924c2.753,5.164,5.258,11.05,7.229,17.559c0.939,3.275,1.813,6.676,2.227,10.352
		c0.445,3.775,0.375,7.414,0.137,11c-0.519,7.204-1.626,14.469-4.188,21.605c-0.64,1.781-1.443,3.552-2.358,5.296
		c-0.524,0.867-0.994,1.735-1.606,2.58c-0.624,0.855-1.288,1.732-1.738,2.262c-2.013,2.482-4.005,5.158-6.012,7.725
		c-7.944,10.417-15.155,16.939-20.052,19.769c-2.433,1.454-4.189,2.093-5.07,2.296c-0.87,0.216-0.894,0-0.073-0.54
		c1.688-1.046,3.641-3.423,6.537-7.296c2.813-3.935,6.734-9.426,12.334-17.263c2.868-3.908,5.593-7.617,8.15-11.102
		c2.036-3.201,3.256-6.92,4.07-10.358c1.596-6.951,1.847-13.007,1.723-17.331c-0.169-4.407-0.014-5.386-0.113-8.633
		c-0.27-3.167-0.4-9.013-6.084-20.843c-5.979-11.645-11.224-17.232-13.553-20.062c-2.425-2.781-1.517-3.59,2.16-1.667
		c3.539,2.012,7.839,5.482,10.961,8.707C94.163,196.183,96.338,198.924,96.338,198.924z"></path>
	<path d="M130.919,327.118c-1.201,1.633-2.492,3.543-4.002,5.451c-1.363,1.793-2.778,3.658-4.231,5.571
		c-2.901,3.88-5.992,8.053-9.533,12.114c-3.622,4.108-7.428,7.769-11.419,11.337c-4.011,3.528-8.262,6.784-12.678,9.377
		c-8.886,5.207-16.169,6.559-20.308,6.895c-4.204,0.275-5.531-0.253-4.116-0.59c1.422-0.352,3.394-1.596,6.529-3.5
		c3.131-1.932,7.419-4.398,13.382-8.12c5.987-3.725,10.771-8.05,14.627-11.945c3.891-3.951,6.762-7.361,8.592-10.065
		c1.864-2.713,2.584-3.33,4.441-5.188c0.923-0.935,2.12-2.191,3.843-4.25c0.847-1.049,1.842-2.281,3.024-3.747
		c0.584-0.75,1.214-1.556,1.895-2.429c0.673-0.864,1.262-1.679,1.97-2.731c2.742-4.158,5.343-7.658,7.881-9.957
		c2.543-2.333,4.995-3.485,6.661-3.698c1.677-0.216,2.399,0.247,2.373,0.707c-0.008,0.534-0.665,1.04-1.701,1.852
		c-2.124,1.654-3.974,4.926-5.185,7.75C131.738,324.769,130.919,327.118,130.919,327.118z"></path>
	<path d="M465.019,221.002c3.577,6.207,6.625,12.969,9.641,19.556c2.965,6.71,6.167,12.716,9.475,19.825
		c6.343,13.812,10.716,27.896,13.811,39.689c1.608,5.957,5.619,22.71,9.709,45.384c1.978,11.392,3.81,24.411,4.293,38.436
		c0.119,7.022,0.105,14.272-0.772,21.639c-0.265,3.682-1.043,7.374-1.596,11.081c-0.901,3.667-1.539,7.401-2.782,11.013
		c-2.062,7.324-5.266,14.346-8.912,20.97c-1.971,3.231-3.786,6.485-6.34,9.654c-2.472,3.037-5.117,5.756-7.849,8.229
		c-11,9.79-22.801,16.54-33.707,22.022c-5.496,2.664-10.718,5.049-16.165,6.821c-5.338,1.729-10.375,2.747-14.892,3.383
		c-9.048,1.247-16,1.142-20.115,1.21c-16.511,0.204-34.175-3.966-54.836-12.3c-10.364-4.154-21.505-9.405-33.9-15.562
		c-12.415-6.108-26.083-13.247-41.746-20.213c-5.717-2.59-11.428-5.003-17.862-7.438c-6.364-2.429-13.154-4.809-20.091-7.269
		c-6.934-2.457-14.02-5.006-20.937-7.781c-3.318-1.358-6.597-2.704-9.81-4.022c-3.126-1.231-6.211-2.349-9.238-3.361
		c-6.047-1.966-11.983-3.725-16.977-4.661c-5.21-0.975-10.337-1.571-14.652-2.324c-1.289-0.265-3.17-0.312-4.753-0.346
		c-1.644-0.034-3.125-0.031-4.655-0.136c-0.804-0.074-1.526-0.093-2.869-0.466c-0.354-0.111-0.789-0.256-1.335-0.546
		c-0.326-0.179-0.633-0.38-0.914-0.593c-0.419-0.33-0.84-0.772-1.156-1.207c-0.33-0.438-0.7-1.194-0.867-1.83
		c-0.194-0.694-0.201-1.176-0.188-1.775l0.093-0.821l0.125-0.488c0.094-0.318,0.21-0.624,0.339-0.904
		c0.377-0.759,0.764-1.238,0.949-1.444l0.529-0.556l0.373-0.343c0.15,0.006,0.12,0.182-0.054,0.509
		c-0.113,0.191-0.256,0.432-0.431,0.725l-0.387,0.679c-0.154,0.315-0.325,0.599-0.549,1.37c-0.082,0.315-0.171,0.642-0.189,1.309
		c-0.003,0.593,0.051,1.142,0.319,1.846c0.127,0.333,0.292,0.657,0.484,0.957l0.542,0.664l0.635,0.562l0.464,0.29
		c1.279,0.657,1.913,0.608,2.444,0.657c1.089,0.031,1.841-0.114,2.724-0.244c1.698-0.278,3.557-0.682,5.652-0.994
		c1.049-0.151,2.112-0.281,3.195-0.293c1.28-0.003,2.634-0.003,4.056-0.006c5.661-0.015,12.22-0.182,19.466,0.991
		c7.262,1.034,15.154,2.722,23.182,5.127c15.889,5.043,33.229,9.04,48.618,14.182c7.686,2.512,14.862,5.512,20.958,8.315
		c6.13,2.809,11.392,5.408,15.49,7.543c16.405,8.5,38.911,21.078,61.004,29.828c11.027,4.389,21.947,7.741,31.566,9.608
		c9.611,1.932,17.872,2.367,23.468,2.367c5.543-0.123,18.269-0.318,32.508-7.133c7.264-3.312,15.121-7.512,22.774-12.605
		c7.58-5.102,15.232-11.081,20.713-18.186c0.682-0.88,1.266-1.799,1.906-2.691c0.605-0.951,1.165-1.997,1.748-2.988
		c1.15-2.006,2.366-3.963,3.252-6.077c2.039-4.093,3.588-8.337,4.926-12.506c2.645-8.377,3.798-16.701,4.261-24.13
		c0.347-3.701,0.216-7.232,0.295-10.442c-0.141-3.232-0.195-6.164-0.414-8.762c-0.403-5.198-0.912-9.01-1.276-11
		c-1.335-7.969-3.917-21.624-8.087-38.22c-4.117-16.664-9.114-35.967-16.264-54.159c-1.776-4.556-3.468-8.766-5.08-12.676
		c-1.577-3.935-3.11-7.417-4.568-11.3c-2.793-7.479-4.321-13.861-5.414-19.176c-2.096-10.611-2.636-17.466-2.943-22.411
		c-0.312-4.911,2.105-3.642,4.659-0.917C462.639,216.847,465.019,221.002,465.019,221.002z"></path>
	<path d="M256.127,360.81c20.679,4.966,46.087,9.003,72.564,11.914c6.619,0.741,13.306,1.414,20.004,2.031
		c6.742,0.577,13.634,1.482,20.169,2.25c13.085,1.528,26.075,2.318,36.808-1.472c5.27-1.991,9.661-4.818,12.122-8.358
		c2.545-3.506,3.367-7.698,3.292-11.679c-0.267-8.046-2.715-14.707-4.33-19.504c-3.536-9.654-4.576-12.763-2.769-9.423
		c1.682,3.389,5.13,7.942,9.051,16.726c1.789,4.42,3.904,10.087,3.338,17.593c-0.361,3.695-1.634,7.849-4.409,11.503
		c-2.827,3.593-6.83,6.383-11.383,8.543c-9.303,4.182-18.914,4.661-27.471,4.497c-8.63-0.201-16.525-1.222-23.704-1.945
		c-7.12-0.775-13.701-1.124-19.633-1.608c-5.91-0.454-11.112-0.855-15.527-1.198c-8.841-0.719-11.33-1.259-18.179-2.497
		c-6.831-1.383-18.088-3.071-44.148-8.306c-26.05-5.411-40.986-11.031-47.618-14.105c-6.632-3.133-5.051-3.849,2.259-2.009
		c7.321,1.809,17.194,3.756,25.268,5C249.896,360.054,256.127,360.81,256.127,360.81z"></path>
	<path d="M180.132,54.834c-17.38-5.531-18.5,34.788-4.86,36.859c-2.202,1.068-2.902,1.306-2.21,2.229
		c8.992-2.725,12.709-7.374,13.987-16.716C187.904,70.955,187.232,57.094,180.132,54.834z"></path>
	<path d="M329.766,110.762c-13.8,7.334-15.763-46.643,6.738-38.282c7.512,2.79,9.311,14.584,7.49,24.565
		C342.174,107.03,336.733,115.203,329.766,110.762z"></path>
	<path d="M185.588,176.609c-3.167-1.207-5.433-5.151-6.174-9.099c-0.962-5.12,0.644-10.244,6.174-9.395
		C195.381,159.621,194.614,180.044,185.588,176.609z"></path>
	<path d="M237.564,183.421c-5.915-0.682,2.552-19.315,12.178-15.911c5.536,1.957,4.172,7.324,0.005,11.303
		C246.666,181.754,242.054,183.936,237.564,183.421z"></path>
	<path d="M459.498,236.23c-6.492,3.846-17.078,14.062-15.957,23.149c0.721,5.833,7.104,7.432,9.153,12.198
		c1.945,4.525-1.258,10.034-0.191,14.096c2.303,8.778,19.757,14.726,26.979,7.54c7.952-7.914-2.835-19.979-5.79-27.587
		C470.909,258.459,468.912,236.113,459.498,236.23z"></path>
	<path d="M491.285,323.269c-12.276-0.667-22.453,14.059-23.817,24.723c-1.094,8.553,1.455,8.158,8.613,11.5
		c7.948,3.71,8.869,7.327,14.721,13.587c11.233,12.016,12.386-8.432,11.121-18.099C500.476,343.94,496.502,331.828,491.285,323.269z
		"></path>
	<path d="M91.291,281.12c-0.114,7.88,6.825,18.01,4.334,25.568c-2.016,6.117-18.193,11.087-24.667,11.917
		c-4.61,0.593-11.156,0.055-13.941-4.355c-4.36-6.905,1.667-8.408,6.806-13.087C71.011,294.621,80.879,282.559,91.291,281.12z"></path>
	<path d="M37.857,324.936c2.573,1.781,22.38,27.053,6.595,25.781C22.621,385.277,13.237,335.004,37.857,324.936z"></path>
	<path d="M418.195,192.408c-7.138,0.429-14.511-2.645-18.25-8.917c-1.642-2.753-4.96-23.689-2.892-25.942
		C404.102,149.858,426.283,187.519,418.195,192.408z"></path>
</g>
</svg>
