<!--?xml version="1.0" encoding="iso-8859-1"?-->
<!-- Generator: Adobe Illustrator 22.1.0, SVG Export Plug-In . SVG Version: 6.00 Build 0)  -->
<svg version="1.1" id="_x31_" xmlns="http://www.w3.org/2000/svg" xmlns:xlink="http://www.w3.org/1999/xlink" x="0px" y="0px" viewBox="0 0 512 512" style="width: 720px;" xml:space="preserve">
<style type="text/css">
 .st0{fill:#94C85C;}
 .st1{fill:#FFFFFF;}
</style>

<g id="svgID1">
	<path class="st0" d="M94.232,252.209c3.211-7.184,1.655-18.859,3.832-24.412c2.177-5.553,6.085-16.982,16.298-15.93
		c10.213,1.052,13.871,17.028,18.815,21.397c4.944,4.37,5.321,6.975,14.647,7.441c9.326,0.466,27.784,0.119,27.784,0.119
		s4.544-17.988,19.939-20.686c15.395-2.698,14.956,10.256,17.003,15.639c2.047,5.383,7.38,12.778,13.05,19.651
		c5.67,6.873,25.362,33.999,30.448,56.79c12.321,19.625,28.386,80.67,25.328,99.662c-3.059,18.992-13.283,39.977-41.406,43.502
		c-28.124,3.525-45.131-8.113-53.762-12.542c-8.632-4.428-55.124-22.369-64.935-24.63c-9.811-2.261-19.056-7.183-20.727-5.143
		c-1.671,2.04-21.758,25.963-39.084,26.43c-17.326,0.467-22.368,0.679-29.594-4.2c-7.226-4.879-3.983-28.952-5.604-35.681
		c-1.621-6.729,11.093-24.741,14.91-29.527c3.817-4.785,12.864-11.676,18.741-17.048c5.877-5.372,14.939-17.191,14.939-33.641
		c0-9.715-10.416-24.734-13.392-25.735c-2.976-1.001-14.373-3.435-23.335-10.89c-8.962-7.455,2.636-13.479,7.992-15.479
		C51.473,265.298,94.232,252.209,94.232,252.209z" style="opacity: 1;"></path>
	<path class="st1" d="M78.423,299.74c2.713,2.261,5.108,21.732,4.363,26.24c-0.745,4.508,27.468,15.315,37.101,14.207
		c9.633-1.108,22.237-10.111,32.666-11.94c10.429-1.829,15.403-0.743,13.594,3.01c-1.809,3.753-11.765,6.932-15.152,9.412
		s-4.556,4.086-4.556,4.086s0.253,4.071,0.033,6.433c-0.22,2.361,2.808,6.077,2.651,13.715c-0.158,7.638-3.475,14.93-9.73,16.032
		c-6.255,1.102-9.872-0.886-12.133,0.56c-2.261,1.446,8.591,4.716,8.591,4.716s50.645,14.061,67.828,11.726
		c-9.948-9.118-24.147-30.035-18.856-48.968c5.291-18.934,12.581-29.334,6.449-31.595c-6.132-2.261-27.241-9.191-48.34-11.152
		c-21.099-1.961-41.539-4.231-50.085-4.227C84.301,302,78.423,299.74,78.423,299.74z" style="opacity: 1;"></path>
	<path d="M89.22,91.751c-2.436-0.496-4.897-0.959-7.329-1.506c-2.42-0.594-4.831-1.186-7.21-1.77
		c-1.676-0.396-3.696-1.049-6.011-1.701c-1.155-0.336-2.378-0.691-3.656-1.064c-1.261-0.423-2.578-0.864-3.934-1.318
		c-2.715-0.905-5.591-1.867-8.449-3.047c-1.437-0.564-2.889-1.134-4.341-1.704c-1.446-0.583-2.849-1.269-4.262-1.895
		c-1.406-0.639-2.801-1.273-4.17-1.897c-1.353-0.655-2.646-1.369-3.921-2.027c-2.544-1.324-4.939-2.573-6.975-3.889
		c-2.06-1.272-3.897-2.373-5.35-3.353c-1.42-1.03-2.509-1.853-3.176-2.407c-1.811-1.5-3.925-3.046-5.94-4.697
		c-1.028-0.797-2.072-1.565-3.107-2.277c-1.045-0.7-2.06-1.372-2.984-2.034c-3.762-2.546-7.075-3.801-8.203-1.876
		c-0.923,1.574,1.431,4.79,4.793,8.081c3.528,3.064,8.004,6.201,11.229,7.495c2.026,0.981,12.189,7.016,24.126,11.838
		c11.885,4.961,25.391,8.617,32.048,10.122c3.519,0.755,6.939,1.488,10.046,2.153c3.121,0.588,5.916,1.155,8.172,1.67
		c0.823,0.196,2.788,0.518,5.667,1.024c2.874,0.54,6.688,1.087,11.216,1.703c9.058,1.196,21.017,2.333,34.139,2.905
		c26.245,1.202,57.041,0.699,78.606,1.479c21.215,0.716,33.219,2.039,40.621,2.993c7.412,0.921,10.22,1.603,13.004,2.057
		c5.576,1.089,10.036,0.465,10.903-0.797c0.861-1.207-1.972-3.132-11.114-4.048c-4.411-0.382-7.639-0.662-14.825-1.285
		c-7.174-0.555-18.299-1.543-38.501-2.066c-21.554-0.613-52.165-0.01-78.46-1.126c-13.146-0.531-25.192-1.631-34.497-2.841
		c-2.324-0.315-4.481-0.607-6.446-0.873c-1.955-0.323-3.718-0.615-5.263-0.87c-1.545-0.257-2.873-0.477-3.959-0.657
		C90.628,92.031,89.791,91.865,89.22,91.751z"></path>
	<path d="M440.861,104.846c-7.676,0.699-15.815,0.757-23.931,0.586c-8.107-0.165-16.154-0.543-23.652-0.92
		c-14.992-0.803-27.805-1.401-34.473-1.821c-6.661-0.474-15.061-0.379-21.556,0.574c-1.622,0.245-3.125,0.518-4.45,0.815
		c-1.323,0.34-2.468,0.702-3.38,1.082c-1.825,0.76-2.713,1.59-2.257,2.477c0.755,1.466,6.017,1.532,12.244,1.362
		c6.235-0.15,13.481-0.524,18.083-1.016c2.302-0.232,7.489-0.477,14.333-0.531c6.842-0.067,15.341,0.078,24.238,0.272
		c8.898,0.191,18.198,0.393,26.643,0.349c8.446-0.017,16.049-0.434,21.5-0.965c5.455-0.536,11.162-1.267,16.806-2.537
		c2.844-0.533,5.629-1.369,8.423-2.08c2.744-0.892,5.512-1.659,8.131-2.725c5.319-1.912,10.231-4.379,14.64-6.886
		c2.147-1.356,4.285-2.545,6.116-3.964c0.94-0.676,1.852-1.334,2.736-1.97c0.864-0.662,1.647-1.37,2.431-2.014
		c0.777-0.654,1.517-1.303,2.214-1.942c0.664-0.673,1.254-1.37,1.818-2.024c1.097-1.339,2.119-2.499,2.735-3.701
		c1.325-2.323,1.912-4.005,1.701-4.669c-0.21-0.666-1.211-0.332-3.042,1.35c-0.916,0.842-2,2.056-3.535,3.47
		c-0.744,0.727-1.549,1.552-2.427,2.471c-0.951,0.845-1.976,1.785-3.082,2.83c-4.557,4.016-8.854,7.088-13.155,9.396
		c-4.233,2.435-8.419,4.184-12.768,5.856c-4.414,1.506-9.007,2.965-14.372,4.075c-2.661,0.643-5.537,1.072-8.621,1.623
		C447.847,104.081,444.514,104.554,440.861,104.846z"></path>
	<path d="M288.566,128.413c-2.311-1.833-3.929-3.916-4.967-5.881c-1.051-1.961-1.557-3.798-1.69-5.313
		c-0.19-1.513,0.037-2.706,0.215-3.547c0.288-0.845,0.578-1.36,0.85-1.615c0.544-0.507,1.023,0.002,1.31,1.033
		c0.223,1.02,0.566,2.598,1,4.59c0.924,4.027,4.005,7.417,7.373,9.506c3.415,2.127,7.157,3.053,10.391,3.135
		c3.293,0.081,6.737-0.495,9.921-1.648c3.188-1.145,6.187-2.798,8.607-5.06c0.652-0.53,1.182-1.284,1.863-2.007
		c0.507-0.822,1.202-1.633,1.575-2.603c1.002-1.85,1.32-3.976,1.558-5.65c0.106-3.334,0.34-5.017,1.272-0.312
		c0.45,4.771-0.665,8.375-2.697,11.51c-2.086,3.114-5.236,5.955-10.721,8.052c-2.753,1.009-5.864,1.698-8.997,1.854
		c-3.132,0.19-6.332-0.333-8.876-1.279c-2.564-0.936-4.589-2.141-5.925-3.119c-0.689-0.461-1.167-0.925-1.526-1.2
		C288.755,128.569,288.566,128.413,288.566,128.413z"></path>
	<path d="M267.228,235.266c0.627-0.351,1.102-0.909,1.652-1.367c0.486-0.523,0.956-1.083,1.356-1.666
		c0.525-0.842,1.273-2.156,1.576-3.798c0.34-1.618,0.413-3.513,0.036-5.261c-0.62-3.562-2.753-6.39-3.3-7.357
		c-0.648-1.413-2.28-2.647-3.799-2.842c-1.564-0.16-2.763,0.667-3.113,2.636c-0.309,1.658,0.153,2.603,0.687,3.227
		c0.284,0.305,0.634,0.496,0.989,0.681c0.383,0.137,0.785,0.239,1.17,0.278c0.536-0.057,2.465,1.364,3.555,3.853
		c0.525,1.222,0.803,2.622,0.798,3.885c-0.053,1.25-0.319,2.355-0.631,3.025c-0.591,1.438-1.692,2.641-2.668,3.012
		c-0.162,0.095-0.54,0.321-1.156,0.534c-0.585,0.269-1.426,0.492-2.435,0.627c-2.01,0.265-4.848-0.005-7.498-1.389
		c-1.307-0.683-2.596-1.581-3.566-2.745c-0.966-1.162-1.606-2.549-1.729-3.957c-0.127-1.403,0.192-2.805,0.908-3.943
		c0.717-1.135,1.637-2.077,2.61-2.763c1.908-1.367,3.766-1.915,5.193-2.149c1.444-0.226,2.518-0.182,3.309-0.07
		c0.39,0.074,0.72,0.137,1.006,0.193c0.274,0.082,0.496,0.18,0.691,0.251c0.392,0.142,0.66,0.259,0.894,0.43
		c0.495,0.288,1.057,0.223,1.63,0.071c0.583-0.187,1.223-0.547,1.671-1c0.447-0.455,0.687-1.021,0.434-1.647
		c-0.125-0.311-0.374-0.635-0.762-0.943c-0.399-0.278-0.965-0.48-1.651-0.637c-1.342-0.19-2.311-0.269-4.336-0.221
		c-1.006,0.063-2.281,0.152-3.916,0.597c-1.625,0.435-3.671,1.136-5.882,2.823c-1.179,0.891-2.349,2.108-3.279,3.662
		c-0.928,1.558-1.407,3.588-1.192,5.584c0.195,2.01,1.128,3.916,2.385,5.388c1.271,1.473,2.835,2.548,4.418,3.352
		c3.189,1.615,6.58,1.923,9.149,1.525C265.032,236.749,266.695,235.634,267.228,235.266z"></path>
	<path d="M274.317,178.072c-0.243-0.45-0.415-0.943-0.576-1.427c-0.077-0.511-0.245-0.997-0.206-1.513
		c-0.047-0.705,0.065-1.764,0.439-2.911c0.407-1.141,1.077-2.355,1.946-3.362c1.778-2.032,4.105-2.977,4.862-2.857
		c1.045,0.024,2.046,0.003,2.82-0.596c0.756-0.533,1.51-1.634,1.512-3.682c0.004-1.629-1.173-2.583-2.669-2.653
		c-0.74-0.044-1.532,0.079-2.199,0.403c-0.686,0.276-1.254,0.688-1.606,1.147c-0.508,0.501-3.496,2.393-5.446,5.451
		c-0.979,1.508-1.773,3.212-2.112,4.833c-0.343,1.615-0.363,3.066-0.196,3.992c0.258,1.971,1.02,3.656,1.604,4.748
		c0.18,0.406,1.07,1.935,3.049,3.393c1.965,1.438,4.995,2.712,8.468,2.878c3.432,0.239,7.381-0.645,10.334-3.061
		c2.964-2.448,4.181-6.361,3.873-9.304c-0.202-2.941-1.205-5.089-2.167-6.622c-0.975-1.546-1.941-2.534-2.718-3.238
		c-0.403-0.341-0.745-0.631-1.041-0.88c-0.322-0.22-0.593-0.405-0.83-0.567c-0.469-0.34-0.816-0.563-1.187-0.742
		c-0.366-0.195-0.749-0.291-1.112-0.301c-0.371,0.015-0.727,0.136-1.033,0.303c-0.616,0.34-1.034,0.915-1.212,1.527
		c-0.179,0.61-0.138,1.257,0.127,1.732c0.134,0.237,0.326,0.432,0.597,0.555c0.269,0.139,0.591,0.281,1.053,0.316
		c0.865,0.149,1.557,0.277,2.79,1.133c0.587,0.458,1.348,1.089,2.08,2.203c0.735,1.086,1.528,2.657,1.738,4.8
		c0.292,2.273-0.531,5.086-2.706,6.984c-2.187,1.881-5.469,2.747-8.435,2.567c-2.996-0.101-5.617-1.188-7.259-2.375
		C275.213,179.753,274.578,178.467,274.317,178.072z"></path>
	<path d="M97.983,221.971c1.018-2.067,2.333-4.161,4.038-6.115c1.701-1.968,3.859-3.701,6.504-4.915
		c0.687-0.273,1.331-0.629,2.114-0.746c0.761-0.139,1.503-0.395,2.311-0.34c0.796,0.002,1.605-0.046,2.38,0.171l1.176,0.251
		c0.386,0.098,0.733,0.277,1.102,0.416c2.927,1.203,5.16,3.275,7.058,5.421c1.895,2.173,3.492,4.517,4.958,6.892
		c0.719,1.19,1.432,2.385,2.104,3.584l1.004,1.792l0.495,0.896l0.454,0.781c2.503,4.098,6.646,6.935,11.105,7.942
		c4.59,1.125,8.859,1.16,12.453,1.489c3.598,0.275,6.497,0.792,8.568,1.367c2.082,0.561,3.366,1.138,3.961,1.454
		c0.596,0.311,0.505,0.39-0.235,0.199c-1.478-0.401-3.816-0.569-7.594-0.503c-1.894,0.028-4.148,0.152-6.911,0.245
		c-2.756,0.071-6.082,0.144-9.99-0.583c-3.93-0.669-7.6-2.426-10.361-4.776c-1.388-1.181-2.587-2.494-3.586-3.877
		c-0.486-0.688-0.948-1.429-1.333-2.1c-0.38-0.654-0.753-1.296-1.117-1.923c-2.917-4.989-5.691-8.82-8.099-11.025
		c-1.195-1.109-1.994-1.686-2.701-2.232c-0.367-0.234-0.709-0.469-1.078-0.738c-0.387-0.198-0.805-0.411-1.302-0.664
		c-1.019-0.302-2.418-0.806-4.658-0.096c-2.191,0.744-5.325,2.661-7.916,6.908c-2.579,4.269-3.67,8.292-4.471,11.344
		c-0.742,3.091-1.103,5.337-1.399,6.761c-0.507,2.859-1.143,2.445-1.302-0.665c-0.135-3.09,0.098-7.256,0.718-10.646
		C97.044,224.554,97.983,221.971,97.983,221.971z"></path>
	<path d="M178.221,229.218c1.777-2.165,3.947-4.332,6.54-6.265c2.593-1.922,5.61-3.646,9.104-4.631
		c0.862-0.264,1.796-0.382,2.706-0.548c0.94-0.03,1.911-0.188,2.833-0.058c0.934,0.089,1.862,0.106,2.809,0.395
		c0.47,0.118,0.942,0.228,1.407,0.367l1.363,0.599l0.673,0.314l0.62,0.416c0.407,0.285,0.829,0.556,1.211,0.863
		c0.691,0.681,1.447,1.331,1.959,2.105c1.18,1.481,1.878,3.083,2.52,4.605c1.147,3.071,1.66,5.63,2.132,7.713
		c0.463,2.069,0.799,3.698,1.107,4.89c0.62,2.379,0.725,3.245,0.277,2.445c-0.429-0.797-1.435-1.824-2.599-3.88
		c-0.601-1.016-1.213-2.288-1.854-3.833c-0.65-1.542-1.283-3.377-2.101-5.414c-0.815-2.037-1.827-3.809-3.089-5.068
		c-0.337-0.286-0.621-0.629-0.978-0.857c-0.354-0.226-0.701-0.449-1.042-0.668c-0.763-0.292-1.443-0.67-2.221-0.76
		c-3.066-0.629-5.626-0.011-7.374,0.762c-1.753,0.778-2.276,0.937-3.72,1.508c-0.368,0.126-0.77,0.335-1.261,0.591
		c-0.493,0.251-1.079,0.55-1.734,1.007c-1.348,0.842-3.079,2.192-5.084,4.447c-3.959,4.593-5.141,7.97-5.934,9.513
		c-0.756,1.587-1.318,1.366-1.256-0.586c0.133-1.901,0.654-4.481,1.427-6.488c0.384-0.996,0.773-1.871,1.054-2.503
		C178.03,229.588,178.221,229.218,178.221,229.218z"></path>
	<path d="M75.683,261.328c22.315-6.641,28.622-14.891-4.093-5.536c-2.069,0.56-4.077,1.102-6.035,1.629
		c-1.002,0.264-1.991,0.525-2.968,0.782c-0.983,0.286-1.955,0.567-2.916,0.847c-3.811,1.162-7.397,2.407-10.871,3.761
		c-3.479,1.378-6.812,2.774-10.175,4.699c-0.821,0.479-1.744,1.04-2.539,1.716c-0.821,0.616-1.616,1.405-2.361,2.273
		c-0.35,0.507-0.714,0.97-1.014,1.531c-0.253,0.623-0.597,1.158-0.703,1.874c-0.377,1.353-0.176,2.839,0.24,4.07
		c0.951,2.447,2.604,3.912,4.185,5.203c1.62,1.268,3.334,2.287,5.109,3.21c3.548,1.849,7.332,3.347,11.369,4.782
		c8.08,2.789,17.172,5.514,28.073,7.509c10.891,1.98,21.714,2.97,32.197,3.809c10.487,0.846,20.659,1.598,30.308,2.917
		c9.672,1.279,18.72,3.178,27.137,5.729c8.4,2.48,16.072,5.429,22.648,8.975c3.206,1.737,5.89,3.354,8.148,4.686
		c2.224,1.372,4.004,2.48,5.377,3.211c2.667,1.533,3.896,1.388,2.897-0.738c-0.959-2.124-4.314-6.352-11.595-10.956
		c-3.633-2.277-8.241-4.558-13.837-6.605c-5.605-2.025-12.174-3.809-19.721-5.209c-8.137-1.527-14.552-2.165-20.286-2.75
		c-5.737-0.586-10.809-0.97-16.308-1.426c-5.482-0.419-11.397-0.871-18.828-1.438c-7.4-0.615-16.305-1.298-27.585-3.207
		c-8.993-1.519-17.512-4.071-25.57-7.103c-4.002-1.539-7.896-3.211-11.439-5.219c-1.764-1.002-3.451-2.086-4.888-3.295
		c-1.397-1.179-2.663-2.614-2.865-3.727c-0.175-0.558-0.057-0.958,0.144-1.462l0.187-0.381l0.313-0.395
		c0.169-0.273,0.481-0.533,0.766-0.798c1.205-1.073,2.75-1.92,4.511-2.704c3.491-1.562,7.217-2.85,10.889-4.046
		c3.68-1.19,7.378-2.282,11.008-3.234C68.276,263.418,72.081,262.377,75.683,261.328z"></path>
	<path d="M202.397,331.911c2.242,2.733,6.073,5.018,10.24,4.759c0.518-0.07,1.038-0.093,1.557-0.185
		c0.511-0.122,1.054-0.212,1.541-0.345c0.469-0.136,0.824-0.297,1.017-0.438c0.172-0.13,0.281-0.253,0.463-0.582
		c0.328-0.621,0.712-1.893,0.983-2.886c0.28-1.042,0.478-2.061,0.586-3.042c0.457-3.926-0.799-6.463-1.731-7.88
		c-0.988-1.378-1.504-1.889-0.865-1.609c0.57,0.321,1.689,0.484,3.143,1.696c0.702,0.608,1.471,1.484,2.066,2.737
		c0.6,1.25,0.989,2.892,0.935,4.767c-0.062,1.878-0.395,3.599-0.801,5.16c-0.213,0.782-0.4,1.505-0.721,2.315
		c-0.313,0.789-0.814,1.653-1.581,2.301c-0.75,0.632-1.531,0.964-2.198,1.209c-0.668,0.25-1.257,0.367-1.843,0.537
		c-0.573,0.182-1.141,0.253-1.669,0.348c-0.527,0.104-1.024,0.172-1.488,0.19c-0.929,0.095-1.533,0.054-2.073-0.063
		c-0.544-0.087-1.026-0.228-1.705-0.501c-0.686-0.24-1.57-0.613-2.837-1.279c-1.276-0.651-2.887-1.707-4.811-3.463
		c-1.91-1.78-3.016-3.524-3.731-4.907c-0.714-1.392-1.011-2.466-1.091-3.185c-0.162-1.437,0.486-1.471,1.296-0.383
		c0.828,1.086,2.102,2.399,3.251,3.284C201.461,331.376,202.397,331.911,202.397,331.911z"></path>
	<path d="M229.759,257.144c1.742,2.176,3.663,4.577,5.693,7.112c1.006,1.307,2.015,2.674,2.996,4.101
		c0.951,1.4,1.918,2.826,2.893,4.264c3.882,5.794,7.57,12.168,9.831,18.497c2.285,6.331,2.55,11.197,2.357,13.962
		c-0.303,2.794-0.673,3.577-0.712,2.605c-0.044-0.983-0.447-2.448-1.188-4.763c-0.78-2.312-1.825-5.467-3.521-9.924
		c-1.694-4.465-3.776-8.277-5.719-11.404c-1.948-3.129-3.757-5.593-5.151-7.374c-1.399-1.767-1.689-2.397-2.546-3.921
		c-0.865-1.52-2.28-3.961-6.688-9.143c-4.484-5.193-6.435-9.073-6.908-10.957c-0.502-1.906,0.193-1.887,1.338-0.337
		c1.171,1.547,2.955,3.417,4.509,4.828C228.49,256.107,229.759,257.144,229.759,257.144z"></path>
	<path d="M85.405,347.442c-1.893-2.078-4.32-4.454-6.534-7.28c-2.209-2.802-4.223-6.102-5.116-9.517
		c-0.896-3.425-0.468-5.995,0.011-7.354c0.496-1.383,0.903-1.719,0.883-1.241c0.031,1.011,1.143,2.962,2.383,7.216
		c1.402,4.348,3.963,7.215,5.543,8.658c0.817,0.722,0.936,1.013,1.351,1.767c0.455,0.722,1.17,1.949,3.513,4.256
		c2.352,2.289,3.559,3.913,3.908,4.923c0.352,1.005-0.14,1.359-1.006,0.88c-0.87-0.468-2.096-1.034-3.119-1.487
		C86.197,347.799,85.405,347.442,85.405,347.442z"></path>
	<path d="M99.157,332.419c3.192,1.574,6.823,3.057,10.799,3.905c3.971,0.86,8.263,1.095,12.588,0.605
		c1.082-0.1,2.161-0.329,3.246-0.485c1.059-0.191,2.065-0.457,3.085-0.768c2.026-0.648,3.997-1.565,5.953-2.597
		c3.9-2.059,7.817-4.61,12.144-6.187c2.138-0.812,4.386-1.283,6.364-1.388c1.998-0.122,3.79,0.043,5.356,0.283
		c3.136,0.509,5.419,1.245,7.127,1.729c3.386,0.983,4.438,1.381,3.158,1.277c-1.272-0.117-3.255-0.04-6.498-0.201
		c-1.616-0.06-3.54-0.182-5.79-0.115c-2.251,0.074-4.814,0.362-7.656,1.407c-5.805,2.16-10.457,5.794-15.137,7.973
		c-2.317,1.127-4.591,1.955-6.699,2.456c-2.071,0.454-3.873,0.82-5.453,1.005c-1.567,0.259-2.598,0.229-3.532,0.235
		c-0.937,0.017-1.785-0.131-3.022-0.273c-0.62-0.057-1.332-0.183-2.197-0.343c-0.869-0.134-1.886-0.324-3.101-0.623
		c-2.43-0.56-5.69-1.456-9.962-3.268c-4.269-1.816-7.414-3.684-9.786-5.177c-2.368-1.508-3.945-2.701-4.897-3.534
		c-1.898-1.674-1.239-1.98,1.115-0.893c2.351,1.083,5.543,2.428,8.155,3.398C97.131,331.817,99.157,332.419,99.157,332.419z"></path>
	<path d="M156.649,338.726c-1.54,0.56-3.185,1.358-4.885,2.323c-0.85,0.484-1.716,1-2.595,1.549
		c-0.847,0.525-1.605,1.073-2.44,1.715c-3.287,2.551-6.721,5.618-10.597,7.588c-2.331,1.206-4.57,1.808-6.388,1.841
		c-0.886,0.082-1.707-0.126-2.33-0.215c-0.642-0.213-1.131-0.416-1.488-0.59l-0.838-0.405l0.25-0.384l0.06-0.079l0.056-0.016
		l0.225-0.049l0.117-0.046l-0.077,0.09l-0.083,0.117l0.002-0.014l-0.218-0.371c-0.034-0.202,0.068-0.119,0.309,0.032
		c0.174,0.098,0.196,0.04,0.256,0.381l0.021,0.119l0.063-0.006c0.348-0.036,0.773-0.117,1.263-0.207
		c0.493-0.138,1.062-0.326,1.699-0.569c1.287-0.49,2.855-1.323,5.023-2.5c2.525-1.429,4.617-3.131,6.358-4.64
		c1.739-1.52,3.146-2.873,4.24-3.893c1.07-1.007,1.628-1.226,2.638-1.661c1.065-0.422,2.684-1.286,6.649-3.189
		c4.026-1.857,6.784-1.995,8.036-1.77c1.277,0.245,1.186,0.872,0.076,1.343c-1.114,0.484-2.513,1.321-3.576,2.086
		C157.409,338.069,156.649,338.726,156.649,338.726z"></path>
	<path d="M149.972,348.131c-0.044,1.811-0.294,3.863-0.992,5.835c-0.679,1.969-1.779,3.859-3.223,5.181
		c-1.445,1.329-2.912,1.721-3.78,1.756c-0.896,0.017-1.238-0.237-1.02-0.365c0.482-0.308,0.537-2.017,2.069-3.634
		c1.564-1.745,2.064-3.657,2.024-4.716c-0.017-0.537,0.101-0.631,0.369-0.964c0.204-0.326,0.653-0.932,0.654-2.388
		c-0.031-1.408,0.065-2.293,0.375-2.946c0.313-0.64,0.84-0.891,1.243-0.457c0.43,0.408,1.003,1.016,1.497,1.601
		C149.629,347.651,149.972,348.131,149.972,348.131z"></path>
	<path d="M126.728,382.349c-1.754,1.064-3.417,2.815-4.926,4.828c-1.53,2.004-2.946,4.258-4.471,6.592
		c-0.774,1.168-1.55,2.36-2.483,3.558c-0.85,1.105-1.706,2.219-2.57,3.343c-1.693,2.26-3.373,4.612-5.105,7.001
		c-3.462,4.762-7.159,9.75-11.693,14.176c-4.423,4.378-9.225,8.661-14.74,12.171c-5.468,3.556-11.706,6.203-18.225,7.531
		c-6.532,1.301-13.191,1.492-19.752,0.504c-3.278-0.521-6.594-1.335-9.738-3.109c-1.562-0.888-3.064-2.145-4.176-3.583
		c-1.123-1.441-1.951-3.012-2.594-4.59c-1.278-3.167-1.839-6.347-2.332-9.389c-0.228-1.497-0.456-2.985-0.682-4.465
		c-0.239-1.336-0.526-3.12-0.597-4.681c-0.213-6.421,1.281-11.958,2.709-16.863c0.734-2.458,1.507-4.763,2.231-6.944
		c0.801-2.409,2.006-4.5,3.248-6.27c1.24-1.786,2.493-3.32,3.569-4.79c1.111-1.449,1.9-2.867,2.917-4.346
		c1.965-2.829,4.034-4.951,5.845-6.661c3.674-3.374,6.347-5.168,7.617-6.025c1.287-0.834,1.23-0.665-0.159,0.451
		c-1.382,1.13-3.047,2.627-5.048,4.721c-1.98,2.099-4.369,4.784-6.604,8.558c-0.563,0.929-1.051,1.971-1.696,3.069
		c-0.629,1.086-1.346,2.178-2.1,3.302c-1.495,2.247-3.193,4.62-4.259,7.471c-0.507,1.376-0.936,3.082-1.432,4.741
		c-0.486,1.682-0.971,3.428-1.434,5.252c-0.917,3.64-1.773,7.616-1.9,11.886c-0.032,1.064-0.004,2.119,0.097,3.151
		c0.086,1.046,0.271,1.998,0.469,3.129c0.376,2.176,0.665,4.283,1.041,6.323c0.744,4.041,1.792,7.959,4.042,10.722
		c2.178,2.748,5.715,3.986,9.148,4.748c3.466,0.735,6.953,0.964,10.266,0.945c6.637-0.089,12.626-1.304,17.592-3.292
		c5.004-1.922,9.013-4.506,12.243-6.892c3.215-2.432,5.178-4.147,6.978-5.727c1.793-1.577,3.444-3.049,5.735-5.264
		c2.262-2.202,5.065-5.328,8.996-10.568c1.975-2.619,4.218-5.775,7.042-9.483c0.705-0.91,1.439-1.855,2.201-2.84
		c0.71-0.926,1.412-1.98,2.14-3.093c1.458-2.227,2.994-4.729,4.968-7.313c1.998-2.533,4.273-4.997,7.469-6.219
		c0.396-0.13,0.814-0.288,1.187-0.378l1.091-0.232c0.722-0.128,1.441-0.25,2.137-0.31c1.402-0.153,2.733-0.18,3.968-0.226
		c2.49-0.059,4.551-0.28,6.214-1.111c1.669-0.808,2.965-2.19,4.053-3.578c2.109-2.859,3.204-5.889,3.835-8.405
		c0.154-0.635,0.277-1.245,0.37-1.827c0.09-0.54,0.105-1.018,0.082-1.547c-0.051-1.035-0.189-2.01-0.267-2.873
		c-0.179-1.726-0.09-3.065,0.232-3.818c0.323-0.756,0.63-0.895,0.642-0.697c0.042,0.209-0.124,0.752-0.047,1.707
		c0.049,0.956,0.367,2.287,0.737,4.046c0.171,0.885,0.367,1.822,0.348,2.889c-0.042,1.03-0.172,2.009-0.357,3.039
		c-0.376,2.04-1.005,4.127-1.921,6.135c-0.912,2.012-2.141,3.932-3.747,5.565c-1.58,1.672-3.806,2.775-5.887,3.265
		c-2.089,0.469-3.97,0.547-5.564,0.718c-1.599,0.15-2.935,0.376-4.023,0.635c-1.143,0.292-1.763,0.545-2.227,0.814
		C126.977,382.198,126.725,382.332,126.728,382.349z"></path>
	<path d="M71.956,305.521c1.41,2.644,2.692,5.658,3.702,8.991c0.481,1.677,0.928,3.419,1.14,5.301
		c0.228,1.933,0.192,3.796,0.07,5.633c-0.266,3.689-0.832,7.409-2.144,11.063c-0.328,0.912-0.739,1.819-1.207,2.712
		c-0.268,0.444-0.509,0.888-0.823,1.321c-0.32,0.438-0.66,0.887-0.89,1.158c-1.031,1.271-2.051,2.641-3.079,3.956
		c-4.068,5.334-7.76,8.673-10.268,10.123c-1.246,0.744-2.145,1.072-2.596,1.176c-0.446,0.111-0.458,0-0.037-0.277
		c0.864-0.536,1.864-1.753,3.347-3.736c1.44-2.015,3.448-4.827,6.315-8.839c1.469-2.001,2.864-3.901,4.173-5.685
		c1.043-1.639,1.667-3.543,2.084-5.304c0.817-3.559,0.946-6.66,0.882-8.874c-0.087-2.257-0.007-2.758-0.058-4.421
		c-0.138-1.621-0.205-4.615-3.115-10.673c-3.062-5.963-5.747-8.824-6.94-10.273c-1.242-1.424-0.777-1.838,1.106-0.853
		c1.812,1.03,4.014,2.807,5.613,4.458C70.842,304.118,71.956,305.521,71.956,305.521z"></path>
	<path d="M89.663,371.163c-0.615,0.836-1.276,1.814-2.049,2.791c-0.698,0.918-1.422,1.873-2.166,2.853
		c-1.485,1.987-3.068,4.123-4.881,6.203c-1.855,2.103-3.804,3.978-5.847,5.805c-2.054,1.806-4.23,3.474-6.492,4.801
		c-4.55,2.666-8.279,3.358-10.398,3.531c-2.153,0.141-2.832-0.13-2.108-0.302c0.728-0.18,1.738-0.817,3.343-1.792
		c1.603-0.989,3.799-2.252,6.852-4.158c3.066-1.908,5.515-4.122,7.49-6.116c1.993-2.023,3.462-3.769,4.399-5.154
		c0.955-1.389,1.323-1.705,2.274-2.657c0.473-0.479,1.085-1.122,1.968-2.176c0.434-0.537,0.943-1.168,1.548-1.919
		c0.299-0.384,0.622-0.797,0.97-1.244c0.345-0.443,0.646-0.86,1.009-1.399c1.404-2.129,2.736-3.921,4.036-5.099
		c1.302-1.195,2.558-1.784,3.411-1.893c0.858-0.111,1.228,0.126,1.215,0.362c-0.004,0.273-0.34,0.533-0.871,0.948
		c-1.088,0.847-2.035,2.522-2.655,3.968C90.082,369.96,89.663,371.163,89.663,371.163z"></path>
	<path d="M260.739,316.826c1.832,3.178,3.392,6.641,4.936,10.014c1.518,3.436,3.158,6.511,4.852,10.151
		c3.248,7.072,5.487,14.284,7.072,20.323c0.823,3.05,2.877,11.629,4.971,23.239c1.013,5.833,1.951,12.5,2.198,19.681
		c0.061,3.595,0.054,7.308-0.395,11.08c-0.136,1.885-0.534,3.776-0.817,5.674c-0.461,1.878-0.788,3.79-1.425,5.639
		c-1.056,3.75-2.696,7.346-4.563,10.738c-1.009,1.655-1.938,3.32-3.246,4.944c-1.266,1.555-2.62,2.947-4.019,4.213
		c-5.633,5.013-11.676,8.47-17.26,11.277c-2.814,1.364-5.488,2.585-8.278,3.493c-2.733,0.885-5.313,1.407-7.626,1.732
		c-4.633,0.638-8.193,0.585-10.3,0.62c-8.454,0.104-17.499-2.031-28.079-6.298c-5.307-2.127-11.012-4.816-17.358-7.969
		c-6.357-3.128-13.356-6.783-21.376-10.35c-2.927-1.326-5.852-2.562-9.146-3.809c-3.259-1.244-6.736-2.462-10.288-3.722
		c-3.551-1.258-7.179-2.563-10.721-3.984c-1.699-0.695-3.378-1.385-5.023-2.059c-1.601-0.631-3.18-1.203-4.73-1.721
		c-3.097-1.007-6.136-1.908-8.693-2.387c-2.668-0.499-5.293-0.804-7.503-1.19c-0.66-0.136-1.623-0.16-2.434-0.177
		c-0.842-0.017-1.6-0.016-2.384-0.07c-0.412-0.038-0.782-0.047-1.469-0.239c-0.181-0.057-0.404-0.131-0.684-0.28
		c-0.167-0.092-0.324-0.194-0.468-0.303c-0.215-0.169-0.43-0.395-0.592-0.618c-0.169-0.224-0.358-0.612-0.444-0.937
		c-0.099-0.356-0.103-0.602-0.096-0.909l0.048-0.42l0.064-0.25c0.048-0.163,0.107-0.319,0.174-0.463
		c0.193-0.389,0.391-0.634,0.486-0.74l0.271-0.284l0.191-0.176c0.077,0.003,0.062,0.093-0.028,0.261
		c-0.058,0.098-0.131,0.221-0.221,0.371l-0.198,0.348c-0.079,0.161-0.166,0.307-0.281,0.702c-0.042,0.161-0.087,0.329-0.097,0.67
		c-0.002,0.303,0.026,0.585,0.163,0.945c0.065,0.171,0.15,0.337,0.248,0.49l0.278,0.34l0.325,0.288l0.238,0.148
		c0.655,0.337,0.979,0.311,1.251,0.337c0.558,0.016,0.943-0.059,1.395-0.125c0.87-0.142,1.821-0.349,2.894-0.509
		c0.537-0.077,1.081-0.144,1.636-0.15c0.656-0.002,1.349-0.002,2.077-0.003c2.898-0.008,6.257-0.093,9.967,0.507
		c3.718,0.53,7.76,1.394,11.87,2.625c8.136,2.582,17.015,4.629,24.895,7.262c3.936,1.286,7.61,2.823,10.732,4.258
		c3.139,1.438,5.833,2.769,7.931,3.862c8.4,4.353,19.925,10.793,31.237,15.273c5.646,2.247,11.238,3.964,16.163,4.92
		c4.921,0.989,9.152,1.212,12.017,1.212c2.839-0.063,9.355-0.163,16.646-3.652c3.72-1.696,7.743-3.847,11.661-6.454
		c3.881-2.613,7.799-5.674,10.606-9.312c0.349-0.45,0.648-0.921,0.976-1.378c0.31-0.487,0.597-1.022,0.895-1.53
		c0.589-1.027,1.211-2.029,1.665-3.112c1.044-2.096,1.837-4.269,2.522-6.404c1.354-4.289,1.945-8.552,2.182-12.356
		c0.178-1.895,0.111-3.703,0.151-5.347c-0.072-1.655-0.1-3.156-0.212-4.487c-0.206-2.661-0.467-4.613-0.654-5.633
		c-0.684-4.081-2.006-11.073-4.141-19.571c-2.108-8.533-4.667-18.417-8.328-27.732c-0.909-2.333-1.776-4.489-2.601-6.491
		c-0.808-2.015-1.592-3.798-2.339-5.786c-1.43-3.829-2.213-7.098-2.772-9.819c-1.073-5.434-1.35-8.944-1.507-11.476
		c-0.16-2.514,1.078-1.865,2.386-0.469C259.52,314.699,260.739,316.826,260.739,316.826z"></path>
	<path d="M153.776,388.415c10.589,2.543,23.599,4.61,37.157,6.1c3.389,0.379,6.813,0.724,10.243,1.04
		c3.452,0.296,6.982,0.759,10.328,1.152c6.7,0.782,13.351,1.187,18.847-0.754c2.699-1.019,4.947-2.467,6.207-4.28
		c1.303-1.795,1.724-3.942,1.686-5.98c-0.137-4.12-1.39-7.531-2.217-9.987c-1.81-4.944-2.343-6.535-1.418-4.825
		c0.861,1.735,2.627,4.066,4.635,8.564c0.916,2.263,1.999,5.165,1.709,9.009c-0.185,1.892-0.837,4.019-2.258,5.89
		c-1.448,1.84-3.498,3.268-5.829,4.375c-4.763,2.142-9.685,2.387-14.067,2.303c-4.419-0.103-8.462-0.626-12.137-0.996
		c-3.646-0.397-7.016-0.575-10.053-0.823c-3.026-0.232-5.69-0.438-7.95-0.613c-4.527-0.368-5.801-0.645-9.309-1.279
		c-3.498-0.708-9.262-1.573-22.606-4.253c-13.339-2.771-20.987-5.648-24.383-7.223c-3.396-1.604-2.586-1.971,1.157-1.029
		c3.749,0.926,8.804,1.923,12.938,2.56C150.585,388.028,153.776,388.415,153.776,388.415z"></path>
	<path d="M114.863,231.74c-8.899-2.832-9.473,17.813-2.488,18.873c-1.127,0.547-1.486,0.669-1.132,1.141
		c4.604-1.396,6.508-3.776,7.162-8.56C118.842,239.995,118.498,232.897,114.863,231.74z"></path>
	<path d="M191.483,260.378c-7.066,3.755-8.072-23.884,3.451-19.602c3.846,1.429,4.768,7.468,3.835,12.579
		C197.836,258.467,195.05,262.652,191.483,260.378z"></path>
	<path d="M117.656,294.095c-1.622-0.618-2.782-2.638-3.161-4.659c-0.492-2.622,0.33-5.246,3.161-4.811
		C122.671,285.396,122.278,295.854,117.656,294.095z"></path>
	<path d="M144.271,297.583c-3.029-0.349,1.307-9.89,6.236-8.147c2.835,1.002,2.136,3.75,0.002,5.788
		C148.931,296.729,146.57,297.847,144.271,297.583z"></path>
	<path d="M257.912,324.624c-3.324,1.969-8.745,7.201-8.171,11.853c0.369,2.987,3.637,3.806,4.687,6.246
		c0.996,2.317-0.644,5.138-0.098,7.218c1.179,4.495,10.116,7.54,13.815,3.861c4.072-4.052-1.452-10.23-2.965-14.126
		C263.755,336.006,262.733,324.564,257.912,324.624z"></path>
	<path d="M274.188,369.192c-6.286-0.341-11.497,7.199-12.195,12.659c-0.56,4.379,0.745,4.177,4.41,5.889
		c4.07,1.9,4.541,3.752,7.538,6.957c5.752,6.153,6.342-4.318,5.694-9.268C278.895,379.776,276.86,373.575,274.188,369.192z"></path>
	<path d="M69.372,347.61c-0.058,4.035,3.495,9.222,2.219,13.092c-1.032,3.132-9.316,5.677-12.631,6.102
		c-2.36,0.303-5.713,0.028-7.138-2.23c-2.232-3.535,0.853-4.305,3.485-6.701C58.987,354.523,64.04,348.346,69.372,347.61z"></path>
	<path d="M42.011,370.046c1.317,0.912,11.46,13.852,3.377,13.201C34.209,400.943,29.404,375.201,42.011,370.046z"></path>
	<path d="M236.763,302.185c-3.655,0.22-7.43-1.354-9.345-4.566c-0.841-1.41-2.54-12.13-1.481-13.284
		C229.547,280.397,240.904,299.682,236.763,302.185z"></path>
</g>
</svg>
