<!--?xml version="1.0" encoding="iso-8859-1"?-->
<!-- Generator: Adobe Illustrator 21.1.0, SVG Export Plug-In . SVG Version: 6.00 Build 0)  -->
<svg version="1.1" id="_x31_" xmlns="http://www.w3.org/2000/svg" xmlns:xlink="http://www.w3.org/1999/xlink" x="0px" y="0px" viewBox="0 0 512 512" style="width: 720px;" xml:space="preserve">
<style type="text/css">
 .st0{fill:#94C85C;}
 .st1{fill:#FFFFFF;}
 .st2{fill:#595959;}
</style>

<g id="svgID1">
	<path class="st0" d="M498.384,173.988c-14.917-7.956-61.657-37.79-61.657-37.79s2.983-14.917-9.945-11.934
		c-12.928,2.983-16.906,6.961-16.906,6.961l-15.911-7.956c0,0,3.067-5.133-0.995-9.945c-4.061-4.811-16.521,2.131-19.553,4.044
		c-3.033,1.913-7.297,4.906-7.297,4.906s-10.608-0.994-13.923-0.332c-3.315,0.663-9.281,2.983-9.281,2.983
		s-9.282-2.321-13.591-2.321c-4.309,0-30.165,0.332-35.138,1.658c-4.972,1.326-14.254,5.635-15.912,15.58
		c-1.658,9.945,2.983,16.243,6.63,18.895c3.646,2.652,20.552,22.873,20.552,22.873v4.972c0,0-35.469,3.978-41.768,7.293
		c-6.298,3.315-23.204,11.934-30.497,19.558c-7.293,7.624-9.613,13.26-9.613,13.26h-2.652
		c-15.911-10.939-42.872-22.97-56.685-13.923c-13.813,9.047-16.906,18.895-12.928,32.818c3.978,13.923,5.967,30.829,5.967,30.829
		s-3.006,5.538-9.945,4.972c-6.938-0.565-17.9,2.983-26.851,9.945c-8.95,6.961-25.561,26.288-40.773,26.851
		c-15.212,0.563-22.873-9.945-33.812-18.895c-10.939-8.95-24.862-8.95-24.862-8.95l-16.906-2.983c0,0,1.989,5.967,8.95,8.95
		s12.928,10.939,12.928,10.939s-13.923-3.978-8.95-0.995s12.928,9.945,20.884,16.906c7.956,6.961,21.879,13.923,35.801,16.906
		s35.042-13.422,41.768-16.906c6.726-3.485,45.746-9.945,53.701-5.967c7.956,3.978,8.76,16.856,6.961,24.862
		c-1.799,8.006-7.956,13.923-18.895,13.923c-10.939,0-37.79,1.989-53.701,10.939c-5.967,4.972,9.945,0.995,17.9,0.995
		s-22.526,3.511-26.877,12.938c-2.983,6.464,13.452-0.507,31.352-4.485c17.9-3.978,10.442,0.497,10.442,0.497
		s-26.715,34.732-11.934,21.878c11.437-9.945,24.862-14.917,34.807-15.911c9.945-0.995,31.823-2.983,41.768-9.945
		c9.945-6.961,10.939-36.796,7.956-44.751c-2.983-7.956,6.961-5.967,14.917-4.972c7.956,0.994,26.26,2.354,28.84,2.983
		c2.579,0.629,21.878,13.923,44.751,11.934c22.873-1.989,51.38-8.443,64.641-15.912c13.26-7.468,36.796-26.851,49.724-45.746
		c12.928-18.895,17.901-38.784,17.901-38.784s61.279-19.501,71.602-30.829C511.691,195.477,513.301,181.943,498.384,173.988z
		 M349.213,163.048c0,0-5.304,10.276-10.939,7.292c-5.635-2.983-29.171-26.519-29.834-27.845c0,0-2.292-1.465-0.331-1.657
		c1.96-0.192,8.95,0,11.602-0.332c2.652-0.331,21.216,0.663,21.216,0.663s6.961-2.652,8.287-1.326
		C350.539,141.17,349.213,163.048,349.213,163.048z M461.589,195.534c-4.641,1.657-16.906,2.321-17.901,1.989
		c-0.994-0.332,0-2.652-0.331-3.978c-0.332-1.326,0.994-18.232,0.663-23.536c-0.332-5.304-1.657-6.961-1.657-7.956
		c0-0.994-0.663-3.978,5.635,0.331c4.067,2.783,17.238,15.249,21.878,18.895c4.641,3.647,5.967,8.287,5.967,8.287
		S466.23,193.877,461.589,195.534z" style="opacity: 1;"></path>
	<path class="st1" d="M223.578,226.695c0,0,31.952,12.244,43.49,28.995c11.537,16.751,34.41,10.784,55.294,4.817
		c20.884-5.967,51.713-47.735,51.713-61.657c0-13.923,2.983-22.873,10.939-21.878c7.956,0.995,23.365-5.159,19.705-13.954
		c-3.66-8.795-7.511-18.347-27.531-25.07s-31.976-4.998-31.976-4.998s10.839,11.559,6.984,24.132
		c-3.855,12.573-10.085,23.902-31.893,27.366c-21.809,3.463-45.676,6.447-60.593,12.413
		C244.794,202.827,228.22,218.739,223.578,226.695z" style="opacity: 1;"></path>
	<g>
		<path class="st2" d="M337.227,172.329c5.081-3.525,8.022-7.754,9.596-11.714c0.201-0.499,0.399-0.985,0.592-1.462
			c0.123-0.507,0.243-1,0.36-1.484c0.221-0.975,0.545-1.882,0.584-2.822c0.117-0.928,0.228-1.812,0.335-2.653
			c0.016-0.864,0.031-1.684,0.047-2.461c0.023-6.285-0.576-10.044-0.048-11.623c0.453-1.589,1.551-0.971,2.911,1.55
			c0.34,0.627,0.694,1.373,1.057,2.228c0.326,0.866,0.573,1.876,0.853,2.974c0.621,2.17,0.835,4.875,0.777,7.863
			c-0.225,6-2.247,12.155-5.949,16.931c-3.657,4.819-8.511,8.247-13.367,10.834c-4.889,2.589-9.87,4.434-14.671,5.947
			c-4.807,1.519-9.457,2.612-13.839,3.512c-8.766,1.773-17.507,3.143-26.113,4.697c-8.546,1.612-17.174,3.211-24.665,6.561
			c-0.463,0.214-0.941,0.433-1.432,0.66c-0.479,0.239-0.921,0.532-1.404,0.802c-0.491,0.295-0.939,0.519-1.5,0.884
			c-0.555,0.352-1.117,0.709-1.687,1.072c-2.232,1.377-4.529,2.783-6.773,4.263c-4.488,2.943-8.713,6.173-11.835,8.871
			c-3.138,2.678-5.211,4.763-5.834,4.904c-0.566,0.194,0.213-1.682,3.854-5.986c7.423-8.469,13.829-13.318,20.354-18.446
			c3.672-2.748,7.855-4.693,12.665-6.377c4.822-1.672,10.323-3.028,16.893-4.289c13.146-2.504,28.386-4.535,39.8-7.68
			c5.716-1.527,10.414-3.337,13.587-4.86c1.568-0.787,2.832-1.398,3.607-1.933C336.79,172.597,337.227,172.329,337.227,172.329z" style="opacity: 1;"></path>
		<path class="st2" d="M421.361,241.361c0.006-2.139,2.578-1.688,4.749,0.258c2.164,1.933,3.97,5.512,2.078,9.302
			c-3.788,7.48-6.602,11.594-11.237,19.13c-4.661,7.468-5.634,7.443-11.672,15.224c-0.754,0.96-1.569,2.102-2.532,3.304
			c-0.975,1.196-2.034,2.494-3.14,3.852c-1.125,1.344-2.21,2.811-3.468,4.182c-1.25,1.377-2.515,2.768-3.756,4.133
			c-1.216,1.387-2.517,2.661-3.787,3.842c-1.266,1.181-2.467,2.3-3.558,3.32c-2.299,1.923-4.271,3.333-5.458,4.021
			c-0.573,0.379-2.041,1.352-4.178,2.768c-1.075,0.697-2.255,1.591-3.665,2.444c-1.416,0.845-2.974,1.771-4.644,2.766
			c-6.753,3.852-15.918,7.655-25.005,10.224c-9.077,2.647-17.89,4.755-24.348,6.567c-1.608,0.458-3.081,0.878-4.383,1.249
			c-0.664,0.186-1.285,0.361-1.859,0.522c-0.661,0.163-1.269,0.313-1.817,0.447c-1.111,0.299-1.919,0.371-2.496,0.486
			c-0.569,0.093-0.872,0.144-0.872,0.144s-2.352,0.418-5.947,0.637c-3.599,0.239-8.442,0.252-13.519-0.229
			c-5.076-0.462-10.395-1.389-14.921-2.71c-2.265-0.62-4.323-1.437-6.056-2.17c-1.721-0.86-3.131-1.558-4.062-2.37
			c-1.888-1.478-3.342-2.783-4.431-3.747c-1.063-1.024-1.729-1.781-2.047-2.185c-0.622-0.866,0.309-0.447,3.271,0.28
			c1.541,0.26,2.702,0.641,3.83,0.944c1.095,0.348,2.038,0.781,3.032,1.146c1.939,0.802,3.939,1.632,6.947,1.847
			c2.98,0.268,9.002,1.565,14.427,2.341c5.409,0.841,10.155,1.189,10.155,1.189s1.131,0.004,3.117-0.136
			c1.987-0.095,4.844-0.369,8.164-1.049c3.25-0.75,7.324-2.084,11.627-3.166c4.324-1.132,8.981-2.354,13.719-3.595
			c4.725-1.239,9.459-2.645,13.955-4.156c4.459-1.595,8.685-3.281,12.341-5.126c3.706-1.756,6.794-3.714,9.362-5.184
			c2.444-1.661,4.335-2.896,5.46-3.551c4.328-2.838,10.914-8.342,15.966-14.274c5.198-5.784,9.36-11.446,10.65-13.185
			c2.672-3.399,6.524-7.055,9.523-12.454c1.499-2.7,3.962-6.573,5.662-9.816c0.847-1.628,1.516-3.108,1.968-4.186
			c0.432-1.086,0.698-1.754,0.698-1.754s0.116-0.287,0.329-0.812c0.202-0.528,0.496-1.294,0.754-2.306
			C420.848,247.777,421.345,244.848,421.361,241.361z" style="opacity: 1;"></path>
		<path class="st2" d="M438.778,157.52c4.821,1.113,6.507,1.962,6.99,2.729c0.48,0.738-0.241,1.292-0.241,1.292
			s-0.118,2.195-0.255,4.765c-0.174,2.579-0.463,5.551-0.91,7.064c-0.459,1.538-0.076,5.909,0.285,10.197
			c0.391,4.277,0.617,8.546,0.415,9.704c-0.087,1.107-1.286,1.968-2.166,1.896c-0.919-0.056-1.68-0.645-1.465-1.911
			c0.251-1.317,0.679-5.755,0.68-10.069c0.027-4.312-0.237-8.469-0.871-9.242c-1.272-1.546-1.02-10.03-1.697-11.648
			c-0.344-0.796-0.546-1.968-0.654-2.954C438.784,158.346,438.778,157.52,438.778,157.52z" style="opacity: 1;"></path>
		<path class="st2" d="M399.992,127.995c2.785,1.014,4.971,1.029,5.503,0.247c0.509-0.73-0.668-2.317-4.914-3.96
			c-8.708-3.252-17.083-3.308-30.533-3.077c-3.385,0.076-6.696-0.225-10.09-0.241c-3.356,0.012-6.633,0.293-9.708,0.82
			c-3.075,0.526-5.951,1.27-8.5,2.342c-1.272,0.542-2.467,1.158-3.537,1.985c-0.534,0.406-1.034,0.905-1.462,1.503
			c-0.422,0.608-0.735,1.431-0.717,2.302c0.048,0.855,0.414,1.571,0.807,2.02c0.39,0.464,0.804,0.783,1.179,0.979
			c0.755,0.437,1.389,0.54,1.865,0.55c0.961-0.006,1.281-0.456,0.994-1.132c-0.144-0.336-0.449-0.727-0.822-1.189
			c-0.35-0.429-0.831-1.086-0.767-1.34c0.041-0.111,0.056-0.033,0.151-0.229c0.097-0.185,0.427-0.546,0.851-0.917
			c0.876-0.765,2.25-1.608,3.903-2.475c3.617-1.814,6.733-2.42,10.46-2.82c1.878-0.181,3.941-0.276,6.393-0.241
			c2.386,0.054,5.459,0.252,8.999,0.138c5.68-0.157,11.373,0.07,16.544,1.022C391.762,125.204,396.373,126.655,399.992,127.995z" style="opacity: 1;"></path>
		<path class="st2" d="M411.722,125.804c-1.3,0.62-2.229,1.459-2.757,2.294c-0.266,0.419-0.43,0.837-0.505,1.239
			l-0.045,0.303l0.002,0.311c0.185,0.074,0.342,0.157,0.47,0.268c0.296,1.231,2.179,1.503,5.745-0.023
			c3.644-1.499,6.216-3.02,9.2-4.298c1.489-0.616,3.099-1.163,4.93-1.259c1.784-0.087,3.945,0.404,5.268,2.372
			c0.665,0.975,1.013,2.086,1.258,3.325c0.265,1.257,0.528,2.498,0.788,3.723c0.516,2.449,1.018,4.831,1.5,7.117
			c0.97,4.57,1.782,8.704,2.174,12.2c0.363,3.385,2.067,4.914,3.397,3.782c0.649-0.575,1.194-1.855,1.2-3.924
			c0.019-2.065-0.555-4.908-2.045-8.276c-1.593-3.589-2.259-5.662-2.877-8.189c-0.293-1.264-0.609-2.63-1.006-4.343
			c-0.201-0.855-0.423-1.797-0.672-2.857c-0.258-1.117-0.699-2.576-1.677-3.945c-1.557-2.286-4.239-3.484-6.558-3.76
			c-2.364-0.322-4.559-0.083-6.621,0.274C418.768,122.904,415.1,124.221,411.722,125.804z" style="opacity: 1;"></path>
		<path class="st2" d="M397.022,120.593c-2.979,0.806-4.514-0.012-4.967-0.789c-0.503-0.792-0.112-1.445-0.112-1.445
			s-0.062-0.61-0.065-1.447c-0.003-0.402-0.001-0.858-0.026-1.208c-0.021-0.385-0.07-0.53-0.188-0.769
			c-0.254-0.476-1.327-1.07-2.308-1.461c-0.998-0.41-1.894-0.728-2.529-0.913c-0.633-0.237-1.952-0.313-3.533,0.01
			c-1.585,0.326-3.37,1.13-5.07,2.074c-1.703,0.944-3.373,1.975-4.806,2.723c-1.421,0.767-2.601,1.237-3.081,1.393
			c-2.021,0.608-3.621-1.35-1.089-2.012c0.628-0.208,1.899-0.573,3.435-1.255c1.544-0.655,3.354-1.583,5.204-2.445
			c1.841-0.874,3.781-1.575,5.396-1.923c1.617-0.33,2.864-0.412,3.277-0.555c0.417-0.171,1.284-0.229,2.349-0.068
			c1.066,0.155,2.247,0.412,3.58,1.068c0.649,0.313,1.372,0.833,1.907,1.56c0.57,0.754,0.73,1.565,0.857,2.168
			c0.171,1.181,0.215,1.826,0.365,2.148c0.25,0.645,0.513,1.416,0.828,2.036c0.13,0.315,0.298,0.587,0.407,0.787
			C396.958,120.469,397.022,120.593,397.022,120.593z" style="opacity: 1;"></path>
		<path class="st2" d="M345.025,129.188c-3.244-0.474-5.55,0.2-5.824,1.066c-0.28,0.899,1.412,1.925,6.012,2.696
			c4.686,0.804,9.081,1.298,14.058,2.094c4.945,0.853,10.545,1.938,17.09,4.784c6.528,2.888,12.684,6.695,17.406,11.05
			c4.771,4.302,8.356,8.795,10.952,12.14c2.511,3.279,4.601,4.143,4.671,2.587c0.018-1.5-1.861-5.668-8.332-11.382
			c-3.486-3.003-6.016-5.262-9.326-7.841c-3.307-2.568-7.488-5.384-14.544-8.434C365.822,133.208,353.422,130.402,345.025,129.188z" style="opacity: 1;"></path>
		<path class="st2" d="M343.003,170.631c-2.171,2.271-3.837,2.688-4.738,2.463c-0.935-0.204-1.229-0.909-1.229-0.909
			s-2.134-1.412-4.366-3.316c-2.227-1.913-4.533-4.302-5.546-5.654c-2.137-2.665-14.197-13.394-15.952-14.814
			c-1.692-1.5-1.402-4.256,1.127-2.014c2.611,2.199,13.883,14.54,15.804,15.061c0.915,0.317,3.01,2.121,5.181,3.784
			c2.145,1.709,4.426,3.172,5.253,3.469c0.841,0.27,1.935,0.816,2.848,1.206C342.301,170.293,343.003,170.631,343.003,170.631z" style="opacity: 1;"></path>
		<path class="st2" d="M295.052,165.511c4.01,6.732,11.1,11.621,13.45,17.739c1.053,3.129-0.406,3.106-1.995,2.222
			c-1.639-0.868-3.826-2.408-4.89-3.801c-2.046-2.809-6.326-7.684-9.687-11.553c-0.831-0.971-2.916-3.341-5.497-6.585
			c-2.562-3.246-5.668-7.373-7.939-12.237c-1.118-2.43-2-5.085-2.266-7.83c-0.289-2.733,0.237-5.549,1.204-7.703
			c1.805-4.147,4.425-6.631,5.358-7.402c0.892-0.856,3.666-2.935,7.739-4.359c4.059-1.428,9.222-2.189,14.382-2.41
			c5.168-0.241,10.373-0.111,14.765-0.105c4.396,0.025,7.976-0.122,9.914-0.441c3.867-0.614,6.445-0.101,7.846,0.701
			c1.395,0.822,1.506,2.039-0.325,2.591c-1.814,0.565-6.47,1.055-10.871,1.109c-4.408,0.082-8.579-0.014-9.667-0.014
			c-1.09,0.031-7.415-0.705-14.073-0.53c-3.325,0.095-6.75,0.462-9.549,1.255c-2.811,0.754-4.955,1.892-5.941,2.673
			c-0.966,0.806-2.45,1.89-3.794,3.527c-1.358,1.6-2.642,3.714-3.422,5.99c-0.788,2.288-0.665,4.821-0.219,6.981
			c0.464,2.172,1.212,4.025,1.851,5.314c1.231,2.634,4.215,5.893,7.148,8.581C291.489,161.941,294.298,164.251,295.052,165.511z" style="opacity: 1;"></path>
		<path class="st2" d="M153.862,277.223c-0.954,3.23-2.095,5.341-4.08,6.526c-1.988,1.224-4.841,1.408-9.004,1.195
			c-3.801-0.2-7.673,0.79-11.033,2.358c-3.443,1.529-6.02,3.506-8.096,5.058c-4.124,2.908-13.069,9.82-17.936,13.637
			c-2.431,1.869-7.203,5.549-12.533,8.391c-2.655,1.418-5.474,2.583-8.031,3.213c-2.553,0.651-4.781,0.719-5.984,0.711
			c-0.602,0.01-1.393-0.105-2.309-0.194c-0.904-0.204-1.972-0.357-3.049-0.793c-1.109-0.353-2.216-0.93-3.33-1.558
			c-0.529-0.35-1.07-0.707-1.617-1.068c-0.451-0.336-0.907-0.676-1.366-1.02c-3.643-2.737-7.394-5.553-9.586-7.099
			c-4.38-3.067-6.901-5.37-14.568-9.414c-3.838-1.993-7.041-3.619-9.286-4.838c-2.247-1.198-3.526-1.997-3.612-2.661
			c-0.083-0.639,1.089-1.086,3.087-0.843c1.985,0.256,4.718,1.294,7.416,3.333c5.427,3.986,17.963,11.829,22.646,15.708
			c1.177,0.958,3.499,2.694,6.432,4.819c1.527,1.059,3.364,2.098,5.479,2.657c2.108,0.583,4.436,0.629,6.666,0.276
			c4.492-0.73,8.54-2.873,11.771-4.871c3.24-2.028,5.758-3.955,7.248-5.062c2.987-2.216,7.75-6.493,12.275-10.397
			c4.503-3.929,9.057-7.212,10.881-8.162c1.769-1.035,5.264-2.845,8.906-4.155c3.637-1.366,7.45-1.993,9.148-2.142
			c3.426-0.301,7.374-1.525,9.781-2.605c1.212-0.536,2.12-0.777,2.737-0.907C153.533,277.195,153.862,277.223,153.862,277.223z" style="opacity: 1;"></path>
		<path class="st2" d="M161.203,318.918c-5.408-0.478-13.031,0.437-19.188,0.853c-3.089,0.196-5.243,0.198-6.571,0.161
			c-1.316-0.025-1.882-0.237-1.435-0.418c0.801-0.338,2.216-2.752,7.171-3.473c4.873-0.664,8.73-1.173,10.997-1.692
			c2.264-0.466,1.321,0.324,8.104,0.336c6.792,0.078,7.99,2.296,6.06,2.643C164.403,317.693,161.203,318.918,161.203,318.918z" style="opacity: 1;"></path>
		<path class="st2" d="M247.526,327.164c-6.658-1.538-16.345-2.034-24.272-3.426c-7.931-1.385-10.962-3.391-9.758-3.265
			c1.202,0.138,3.799-1.292,9.821-0.559c6.017,0.736,10.878,0.977,13.746,0.956c2.869-0.006,1.547,0.608,9.953,1.927
			c8.44,1.396,9.571,3.953,7.118,3.838C251.691,326.564,247.526,327.164,247.526,327.164z" style="opacity: 1;"></path>
		<path class="st2" d="M127.21,318.68c1.899-0.07-5.126,1.301-12.554,6.14c-3.758,2.325-7.722,5.27-11.586,7.985
			c-3.858,2.717-7.676,5.157-10.809,6.592c-6.149,2.995-13.525,4.844-20.115,4.362c-6.489-0.456-11.846-2.339-15.167-4.091
			c-3.338-1.762-7.667-3.931-11.757-6.153c-2.06-1.13-4.024-2.133-5.886-3.259c-1.835-1.095-3.396-2.179-4.636-3.049
			c-1.239-0.87-3.33-2.659-5.653-4.844c-2.331-2.179-4.929-4.722-7.457-6.93c-2.517-2.224-5.014-4.054-6.846-5.145
			c-1.823-1.095-2.891-1.643-2.295-1.62c0.583,0.047,2.296,0.522,4.408,1.61c2.125,1.06,4.609,2.725,6.98,4.568
			c4.73,3.714,9.301,7.797,10.934,8.641c1.609,0.884,4.715,3.261,8.052,5c3.422,1.843,6.84,3.518,8.32,4.034
			c1.475,0.532,5.292,2.088,9.158,3.269c3.857,1.253,7.747,2.007,9.187,2.533c1.439,0.565,6.027,1.424,10.643,0.868
			c4.629-0.453,8.985-2.35,10.206-2.848c1.209-0.577,5.324-2.579,9.399-5.151c4.082-2.531,8.378-5.17,10.18-6.178
			c1.81-0.996,4.924-2.764,8.302-4.032c1.65-0.717,3.412-1.16,4.96-1.606C124.752,318.998,126.18,318.831,127.21,318.68z" style="opacity: 1;"></path>
		<path class="st2" d="M42.059,317.097c-3.325,0.526-4.815,0.387-5.686-0.105c-0.837-0.472-0.976-1.233-0.976-1.233
			s-1.853-1.917-4.365-3.943c-2.495-2.034-5.559-4.205-7.035-5.446c-1.517-1.206-6.393-4.114-11.097-6.88
			c-4.72-2.781-9.471-5.1-10.633-5.538c-1.186-0.519-1.781-1.229-2.144-1.767c-0.175-0.285-0.216-0.565,0.246-0.763
			c0.244-0.105,0.596-0.155,0.933-0.105c0.383,0.027,0.821,0.132,1.285,0.332c4.014,1.305,19.658,12.561,21.946,12.753
			c1.085,0.208,3.954,1.777,6.711,3.611c2.772,1.804,5.351,3.962,6.266,4.584c0.938,0.587,2.135,1.635,3.03,2.63
			c0.456,0.486,0.837,0.952,1.095,1.309C41.898,316.883,42.059,317.097,42.059,317.097z" style="opacity: 1;"></path>
		<path class="st2" d="M46.872,306.144c-2.987,1.509-4.594,1.527-5.577,1.193c-0.965-0.342-1.229-1.107-1.229-1.107
			s-2.207-1.694-4.904-3.57c-2.694-1.876-5.874-3.937-7.418-5.118c-3.075-2.509-20.508-9.632-22.909-10.924
			c-2.417-1.245-2.951-4.056,0.491-2.284c3.414,1.797,20.7,10.77,22.86,11.213c1.104,0.163,4.056,1.63,6.916,3.296
			c2.878,1.63,5.623,3.506,6.614,3.949C43.701,303.679,46.872,306.144,46.872,306.144z" style="opacity: 1;"></path>
		<path class="st2" d="M411.564,200.116c4.359-3.11,6.387-1.779,8.737-1.779c2.358,0.041,18.372-0.812,23.113-0.39
			c1.298,0.146,3.254,0.198,5.542,0.299c2.3,0.087,4.963,0.163,7.59-0.037c2.621-0.186,5.216-0.701,7.205-1.509
			c0.976-0.379,1.875-0.882,2.432-1.191c0.536-0.293,0.928-0.505,1.134-0.618c0.834-0.464,2.945-1.268,5.207-2.09
			c2.265-0.843,4.632-1.713,6.157-2.912c0.369-0.293,0.808-0.691,1.218-1.396c0.425-0.641,0.699-1.969,0.388-2.997
			c-0.3-1.095-0.832-1.633-1.252-2.065c-0.412-0.373-0.806-0.635-1.112-0.767c-1.279-0.552-1.82-0.2-1.453,1.191
			c0.16,0.705,0.49,1.356,0.652,2.001c0.155,0.699-0.125,1-0.543,1.366c-0.887,0.719-2.126,1.435-2.979,1.907
			c-0.429,0.243-2.084,1.022-4.415,2.041c-1.161,0.521-2.486,1.101-3.863,1.845c-1.354,0.791-2.637,1.42-4.148,1.853
			c-2.955,0.878-6.119,1.059-8.582,1.193c-2.471,0.113-4.279,0.192-4.696,0.323c-0.846,0.21-6.067,0.295-11.356,0.076
			c-5.293-0.192-10.666-0.54-11.846-0.317c-2.354,0.441-9.395-3.535-11.782-3.073c-2.375,0.453-4.06,2.24-4.384,3.562
			c-0.326,1.325-0.627,4.846,0.365,3.953C409.888,199.689,411.564,200.116,411.564,200.116z" style="opacity: 1;"></path>
		<path class="st2" d="M479.433,191.183c-1.715-0.456-2.88-0.647-3.638-0.826c-0.857-0.163-1.389-0.379-1.702-0.639
			c-0.307-0.258-0.435-0.557-0.538-0.796c-0.084-0.239-0.076-0.421-0.076-0.421s-0.338-0.488-0.875-1.262
			c-0.622-0.746-1.406-1.816-2.394-2.904c-1.898-2.224-4.308-4.654-5.39-6.035c-2.174-2.863-16.077-12.501-17.615-14.836
			c-0.893-0.936-0.967-2.424-0.54-2.799c0.2-0.216,0.498-0.243,0.822-0.103c0.373,0.148,0.542,0.433,1.123,1.061
			c1.773,2.706,15.315,14.121,17.125,14.867c0.963,0.332,3.264,2.21,5.456,4.254c2.188,2.055,4.222,4.32,4.953,5.062
			c0.376,0.357,0.836,0.752,1.235,1.298c0.395,0.554,0.789,1.144,1.132,1.686c0.318,0.594,0.52,1.255,0.683,1.68
			C479.342,190.913,479.433,191.183,479.433,191.183z" style="opacity: 1;"></path>
		<path class="st2" d="M453.036,144.691c5.183,3.687,26.201,15.999,32.688,19.705c1.636,0.903,3.992,2.342,6.656,4.197
			c2.589,1.814,5.655,3.824,8.631,6.142c2.963,2.309,5.819,4.963,7.8,7.884c2.047,2.898,2.874,6.066,3.123,8.251
			c0.023,0.862,0.045,1.68,0.066,2.455c-0.07,0.761-0.214,1.472-0.309,2.152c-0.121,1.395-0.672,2.449-0.95,3.479
			c-0.28,1.043-0.751,1.801-1.081,2.519c-0.351,0.713-0.651,1.321-0.908,1.843c-1.235,1.917-1.786,2.519-2.66,2.587
			c-1.877,0.146-3.322-0.849-1.644-3.91c0.479-0.746,1.033-1.667,1.715-2.647c0.785-0.95,1.338-2.063,1.981-3.16
			c0.375-0.54,0.48-1.125,0.699-1.672c0.165-0.554,0.439-1.086,0.47-1.589c0.082-1.002,0.167-1.853-0.042-2.315
			c-0.249-0.46-0.506-2.158-1.59-4.31c-1.107-2.141-3.139-4.596-5.596-6.808c-2.448-2.224-5.253-4.24-7.64-5.934
			c-2.396-1.698-4.338-3.073-5.31-3.76c-1.947-1.342-7.028-4.654-12.049-7.715c-5.04-3.032-9.91-5.963-11.269-6.779
			c-2.727-1.628-11.74-5.089-15.123-7.723c-3.399-2.636-4.419-6.998-2.346-6.336C450.395,141.9,453.036,144.691,453.036,144.691z" style="opacity: 1;"></path>
		<path class="st2" d="M412.773,233.621c3.218,0.775,11.344,1.173,19.536-0.124c8.197-1.173,16.297-3.745,19.873-5.423
			c3.621-1.562,10.854-4.178,17.997-7.288c7.172-3.053,14.087-6.853,17.637-9.125c10.902-7.332,10.803-10.43,13.266-9.319
			c2.535,1.076,4.821,3.104,2.111,6.359c-1.325,1.676-4.395,2.987-7.219,4.133c-2.858,1.107-5.546,1.956-6.277,2.976
			c-0.748,0.983-6.843,4.656-13.589,7.818c-6.705,3.265-14.109,5.779-16.539,6.688c-2.421,0.942-8.738,3.03-14.971,4.648
			c-3.148,0.682-6.218,1.48-8.779,1.851c-2.554,0.4-4.52,0.75-5.386,0.843c-0.87,0.085-2.152,0.379-3.677,0.765
			c-0.763,0.2-1.587,0.414-2.444,0.637c-0.872,0.163-1.779,0.334-2.695,0.505c-3.665,0.781-7.643,0.893-10.002,0.311
			c-2.369-0.725-4.198-2.669-5.024-4.37c-0.835-1.725-0.738-3.302,0.404-3.586C409.241,231.345,412.712,233.728,412.773,233.621z" style="opacity: 1;"></path>
		<path class="st2" d="M160.697,207.256c-0.398,3.807,0.633,5.909,0.375,7.762c-0.06,0.977-0.372,1.867-1.217,2.814
			c-0.342,0.554-0.801,1.14-1.432,1.785c-0.639,0.643-1.203,1.55-2.096,2.496c-2.388,3.018-3.804,7.95-4.107,12.695
			c-0.376,4.761,0.282,9.311,0.793,12.215c0.504,2.913,1.727,10.16,3.669,17.44c1.883,7.284,4.24,14.599,5.335,17.835
			c0.562,1.618,2.538,7.449,5.446,15.327c2.834,7.921,6.782,17.741,9.783,28.177c0.684,2.63,1.375,5.39,1.588,8.199
			c0.244,2.793,0.29,5.668-0.424,8.509c-0.654,2.824-2.076,5.553-4.035,7.55c-1.947,2.007-4.219,3.335-6.326,4.19
			c-4.25,1.699-7.901,2.138-10.579,2.498c-2.687,0.32-4.447,0.414-5.031,0.46c-2.341,0.19-7.377,0.284-12.488,0.437
			c-5.124,0.132-10.317,0.61-13.173,1.218c-2.853,0.587-5.143,1.144-7.608,2.275c-0.301,0.15-0.609,0.303-0.925,0.46
			c-0.578,0.328-1.189,0.48-1.502,0.589c-0.774,0.262-1.592,0.54-2.47,0.837c-1.747,0.614-3.717,1.348-6.015,2.28
			c-4.549,1.812-8.379,3.339-11.168,4.45c-1.35,0.519-2.398,0.936-3.003,1.125l-0.292,0.051l-0.038-0.016l-0.421-0.466
			c-0.218-0.284-0.468-0.517-0.727-0.701c-0.812-0.686-0.88-0.288-0.664-0.488l0.006-0.006c-0.147,0.183-0.23-0.134,0.481,0.363
			l0.256,0.183l-0.035-0.058l-0.007-0.171l0.204-0.47c0.21-0.342,0.55-0.715,0.969-1.088c1.699-1.503,4.683-3.02,8.425-3.896
			c1.875-0.439,4.268-1.123,6.916-1.915c1.322-0.404,2.709-0.827,4.127-1.259c0.707-0.221,1.422-0.443,2.14-0.668
			c0.71-0.229,1.461-0.412,2.118-0.796c5.394-2.762,11.435-3.512,14.839-3.721c0.86-0.05,3.028-0.183,6.18-0.373
			c3.159-0.14,7.305-0.322,12.112-0.534c4.783-0.34,10.358-0.635,15.883-2.717c2.737-1.027,5.397-2.776,7.181-5.322
			c1.811-2.531,2.576-5.712,2.628-8.809c0.096-6.258-1.874-12.256-3.707-17.794c-1.892-5.551-3.863-10.735-5.587-15.331
			c-3.481-9.177-5.959-15.999-6.646-17.99c-1.406-3.968-4.943-13.371-7.628-22.583c-1.344-4.603-2.426-9.168-3.162-12.88
			c-0.312-1.868-0.586-3.512-0.806-4.831c-0.143-1.332-0.25-2.337-0.312-2.915c-0.212-2.309-0.61-6.777-0.322-11.215
			c0.077-2.22,0.48-4.413,0.838-6.295c0.519-1.855,0.898-3.436,1.389-4.347c0.756-1.892,1.674-3.951,2.663-5.975
			c0.567-0.985,1.125-1.952,1.65-2.863c0.603-0.862,1.224-1.649,1.772-2.379c0.278-0.359,0.543-0.703,0.813-0.993
			c0.288-0.262,0.564-0.497,0.825-0.709c0.522-0.424,0.983-0.75,1.361-0.993C160.271,207.419,160.697,207.256,160.697,207.256z" style="opacity: 1;"></path>
		<path class="st2" d="M238.72,292.988c0.59,0.794,1.31,1.338,2.119,1.595c0.818,0.241,1.674,0.303,2.496,0.342
			c1.635,0.117,3.237-0.171,4.388,0.923c1.168,1.055,0.84,3.226-0.122,5.087c-0.948,1.865-2.579,3.411-3.514,3.279
			c-0.922-0.095-2.22-0.371-3.611-0.703c-0.695-0.161-1.412-0.326-2.119-0.488c-0.703-0.192-1.392-0.441-2.036-0.645
			c-1.274-0.328-6.412-2.193-10.792-5.285c-4.419-3.046-7.796-6.744-8.543-7.493c-0.803-0.775-3.604-4.605-6.599-8.134
			c-2.982-3.584-6.629-6.625-8.542-7.055c-1.95-0.342-1.976-2.278-1.389-4.168c0.598-1.88,1.889-3.655,2.869-3.479
			c0.948,0.2,2.98,1.268,4.671,2.626c1.764,1.28,3.258,2.715,3.651,3.085c0.415,0.359,2.062,3.178,3.675,6.068
			c1.63,2.888,3.376,5.831,4.531,6.415c1.154,0.573,2.719,2.269,4.376,3.922c1.636,1.672,3.398,3.3,4.545,4.048
			c0.552,0.404,1.444,0.604,2.48,0.602c1.037-0.004,2.1-0.012,3.18-0.25c1.059-0.196,2.02-0.404,2.757-0.478
			C237.939,292.703,238.508,292.676,238.72,292.988z" style="opacity: 1;"></path>
		<path class="st2" d="M202.704,272.122c1.176,4.079,2.708,6.633,3.672,9.055c1.008,2.37,1.577,4.423,1.895,6.241
			c0.613,3.597,0.034,6.136,0.034,6.136s0.161,2.607,0.585,6.783c0.421,4.178,1.135,9.925,1.88,16.168
			c0.742,6.241,1.465,12.987,1.766,19.13c0.305,6.142,0.122,11.679-0.42,15.37c-0.315,1.867-0.583,4.638-1.468,8.014
			c-0.87,3.36-2.593,7.34-5.658,10.825c-1.485,1.785-3.379,3.312-5.389,4.767c-2.083,1.338-4.3,2.628-6.692,3.609
			c-4.743,2.08-9.911,3.465-15.051,4.563c-10.293,2.176-20.537,3.353-28.527,5.137c-3.994,0.87-7.431,1.845-10.029,2.884
			c-2.595,1.039-4.413,2.018-5.364,2.659c-2.005,1.183-3.579,2.457-4.89,3.541c-1.308,1.088-2.208,2.088-2.938,2.403
			c-0.709,0.32-1.116-0.006-0.872-1.426c0.066-0.352,0.154-0.783,0.325-1.262c0.212-0.457,0.482-0.979,0.817-1.568
			c0.69-1.146,1.79-2.471,3.381-3.712c1.583-1.237,4.145-2.853,7.519-4.083c3.361-1.268,7.461-2.304,11.986-3.115
			c9.042-1.67,19.828-2.543,30.076-4.671c5.102-1.088,10.092-2.474,14.404-4.545c4.306-2.063,7.886-4.811,10.219-7.884
			c2.365-3.071,3.43-6.307,3.961-8.89c0.479-2.618,0.577-4.559,0.489-5.522c-0.12-1.913-0.107-5.829-0.478-10.815
			c-0.351-4.982-1.033-11.019-1.89-17.077c-0.84-6.058-1.801-12.145-2.562-17.227c-0.773-5.081-1.334-9.17-1.697-11.161
			c-0.757-3.968-1.388-9.766-1.113-14.849c0.17-2.548,0.486-4.887,1.027-6.645c0.194-0.858,0.532-1.589,0.704-2.074
			C202.598,272.39,202.704,272.122,202.704,272.122z" style="opacity: 1;"></path>
		<path class="st2" d="M158.104,374.834c-1.387,1.183-2.408,1.973-3.23,2.449c-0.811,0.468-1.52,0.818-2.079,0.874
			c-0.565,0.086-1.012-0.016-1.333-0.128c-0.329-0.078-0.517-0.192-0.517-0.192s-0.808-0.027-2.088-0.068
			c-1.285,0-3.075,0.064-5.006,0.256c-3.883,0.299-8.305,1.288-10.602,1.587c-2.315,0.354-8.77,2.568-14.623,5.609
			c-5.933,2.923-11.011,6.785-12.156,7.818c-2.282,1.94-5.578,2.032-1.999-1.303c0.944-0.748,2.865-2.197,5.377-3.718
			c2.534-1.474,5.598-3.129,8.708-4.51c6.174-2.873,12.399-4.84,13.503-5.588c1.106-0.73,4.926-1.923,8.869-2.706
			c3.944-0.802,8.024-0.996,9.36-1.13c1.312-0.272,3.28-0.103,4.895,0.049C156.821,374.488,158.104,374.834,158.104,374.834z" style="opacity: 1;"></path>
		<path class="st2" d="M149.619,364.352c-0.256,1.651-0.796,2.91-1.432,3.782c-0.642,0.841-1.36,1.36-2.006,1.649
			c-1.304,0.517-2.282,0.21-2.282,0.21s-3.825,0.464-8.182,0.359c-4.363-0.064-9.257-0.357-11.738-0.561
			c-1.257-0.109-3.719-0.083-6.705,0.315c-3,0.344-6.42,1.338-9.821,2.463c-1.683,0.559-3.368,1.117-4.828,1.793
			c-1.472,0.666-2.564,1.529-3.586,2.519c-2.044,1.962-3.745,3.44-4.437,3.968c-2.817,2.179-5.978,1.696-2.002-1.296
			c0.998-0.765,2.92-2.265,5.279-4.331c1.184-1.051,2.842-2.125,4.569-2.719c1.718-0.645,3.492-1.159,5.248-1.655
			c3.463-1.035,7.059-1.882,9.893-2.21c2.838-0.387,4.935-0.554,5.611-0.783c1.351-0.452,5.634-0.602,9.828-0.682
			c4.206-0.064,8.312-0.4,9.572-0.8c1.273-0.35,3.063-0.777,4.496-1.2C148.524,364.736,149.619,364.352,149.619,364.352z" style="opacity: 1;"></path>
		<path class="st2" d="M367.293,131.227c-3.671,0.524-2.622-4.196,1.573-3.671
			C373.062,128.081,370.964,130.703,367.293,131.227z" style="opacity: 1;"></path>
		<path class="st2" d="M353.135,128.081c-1.049-2.622,1.049-5.769,2.622-3.671S353.135,128.081,353.135,128.081z" style="opacity: 1;"></path>
		<path class="st2" d="M421.831,133.325c-2.698-1.929,2.098-6.293,5.244-4.72
			C430.222,130.178,425.502,135.947,421.831,133.325z" style="opacity: 1;"></path>
		<path class="st2" d="M378.831,119.165c-4.195,0.524-1.049-3.147,3.671-3.147
			C387.221,116.019,378.831,119.165,378.831,119.165z" style="opacity: 1;"></path>
		<path class="st2" d="M311.574,144.239c-1.388,0.742-2.553,1.115-3.509,1.014c-0.488-0.049-0.915-0.124-1.323-0.499
			c-0.375-0.328-0.833-0.691-0.95-1.103c-0.414-0.798-0.313-1.558-0.113-1.995c0.22-0.454,0.454-0.635,0.468-0.625
			c0,0,0.169-0.225,0.474-0.629c0.202-0.155,0.45-0.348,0.736-0.569c0.303-0.2,0.732-0.332,1.152-0.526
			c0.8-0.289,1.628-0.396,2.333-0.46c0.748-0.064,1.54-0.093,2.344-0.085c3.219,0.029,6.744,0.435,8.531,0.802
			c1.807,0.367,7.087,0.495,12.202,0.332c5.127-0.12,10.009-0.818,11.201-1.024c2.36-0.346,4.533,1.533,0.863,2.16
			c-1.837,0.324-7.35,0.598-12.589,0.445c-5.244-0.109-10.25-0.297-11.23,0.068c-0.981,0.354-4.015,0.321-6.983,0.39
			c-1.476,0.045-2.943,0.13-4.052,0.326c-0.592,0.091-0.924,0.212-1.07,0.276l-0.115,0.177l0.157,0.254l0.095,0.037
			c0.025,0.004,0.008-0.035,0.188,0.146l0.374,0.365l0.429,0.375C311.428,144.107,311.574,144.239,311.574,144.239z" style="opacity: 1;"></path>
		<path class="st2" d="M436.063,198.074c-0.634,3.141-2.316,15.844-7.867,15.789c-5.731-0.056-3.58-10.477-4.614-14.818
			C427.633,196.761,432.592,196.2,436.063,198.074z" style="opacity: 1;"></path>
		<path class="st2" d="M447.601,198.074c4.14,0.012,8.329-0.043,12.425,0.134c0.821,4.869,0.833,13.476-6.128,13.344
			C447.596,211.434,450.722,204.564,447.601,198.074z" style="opacity: 1;"></path>
		<path class="st2" d="M242.004,240.033c-3.506,8.257-19.401,25.095,0,22.842c5.068-0.591,15.183-5.606,15.751-10.254
			C258.366,247.623,250.048,239.421,242.004,240.033z" style="opacity: 1;"></path>
		<path class="st2" d="M221.025,224.3c-3.377,6.375-8.093,10.255-9.311,17.623c0.403,0.48,2.842,2.945,3.195,3.224
			C224.893,242.468,238.742,229.093,221.025,224.3z" style="opacity: 1;"></path>
		<path class="st2" d="M319.628,159.263c-4.276,3.04-4.843,8.022-7.262,12.429
			C319.05,172.366,325.384,170.153,319.628,159.263z" style="opacity: 1;"></path>
		<path class="st2" d="M308.089,146.676c-13.601,2.581-7.082,9.927,4.037,9.28
			C314.364,151.633,312.423,145.977,308.089,146.676z" style="opacity: 1;"></path>
		<path class="st2" d="M393.055,279.893c-2.66,4.333-6.214,8.906-12.425,7.185c-0.018-5.638,8.047-10.727,12.209-13.452
			C393.111,275.261,393.327,277.176,393.055,279.893z" style="opacity: 1;"></path>
		<path class="st2" d="M353.194,305.07c-1.786,3.815-20.56,20.334-21.074,7.878
			C331.884,307.241,349.648,302.007,353.194,305.07z" style="opacity: 1;"></path>
		<path class="st2" d="M300.746,317.656c-4.224-1.995-18.076-5.223-14.761,4.013c2.357,6.565,16.635,6.567,19.16,0.185
			C303.478,320.36,298.838,316.683,300.746,317.656z" style="opacity: 1;"></path>
		<path class="st2" d="M354.243,266.258c0.604-6.911,11.363-11.99,17.616-12.454c2.659,6.447-11.335,21.107-17.819,10.306
			C354.832,262.587,355.921,262.702,354.243,266.258z" style="opacity: 1;"></path>
		<path class="st2" d="M411.936,249.474c-6.999,1.626-14.112,6.965-16.645,13.478c4.565,0.225,10.134,1.34,13.757-1.913
			C413.463,257.077,410.325,251.877,411.936,249.474z" style="opacity: 1;"></path>
		<path class="st2" d="M427.671,177.095c-3.501-4.662-1.951-10.586,2.934-13.528c1.118,4.124-0.24,8.307-2.83,11.297
			C429.333,175.169,429.461,174.438,427.671,177.095z" style="opacity: 1;"></path>
		<path class="st2" d="M400.652,168.444c-0.032-0.276-0.159-0.511-0.159-0.761c-0.048-0.241-0.206-0.493-0.222-0.746
			c-0.125-0.499-0.401-1.01-0.767-1.286c-0.368-0.27-0.863-0.295-1.495,0.276c-0.157,0.142-0.32,0.322-0.487,0.542
			c-0.142,0.231-0.233,0.536-0.338,0.878c-0.264,0.682-0.208,1.585,0.034,2.612c0.676,2.067,2.198,3.267,3.656,4.102
			c1.496,0.851,3.124,1.247,4.826,1.453c1.699,0.217,3.518,0.14,5.433-0.282c1.874-0.412,4.03-1.342,5.529-3.215
			c1.564-1.758,2.445-4.159,2.43-6.48c0.014-2.329-0.658-4.51-1.511-6.416c-1.766-3.817-4.265-6.633-6.299-8.509
			c-1.022-0.901-2.016-1.261-2.703-1.202c-0.679,0.041-1.03,0.456-0.992,1.076c0.088,1.288,1.68,2.978,5.338,6.186
			c1.917,1.781,2.939,3.545,3.587,5.753c0.542,2.168,1.066,5.089-1.412,8.257c-1.82,2.527-5.751,2.84-8.749,2.016
			c-1.52-0.398-2.919-1.027-3.954-1.822C401.367,170.074,400.786,169.155,400.652,168.444z" style="opacity: 1;"></path>
		<path class="st2" d="M275.777,261.837c-5.441,1.299-9.234,3.17-11.743,3.78c-1.232,0.32-2.165,0.363-2.836-0.06
			c-0.654-0.423-1-1.311-1.298-2.911c-0.778-4.815-5.747-9.531-8.537-11.182c-1.367-0.882-4.273-3.551-7.298-6.208
			c-3.039-2.643-6.182-5.281-7.666-6.344c-1.434-1.101-10.529-7.956-20.313-13.375c-4.862-2.743-9.842-5.149-13.763-6.81
			c-1.958-0.847-3.652-1.494-4.928-1.954c-1.269-0.489-2.123-0.765-2.408-0.847c-0.569-0.175-1.455-0.495-2.515-0.892
			c-1.068-0.355-2.311-0.767-3.578-1.187c-1.272-0.387-2.577-0.709-3.755-1.027c-1.178-0.253-2.231-0.429-3.001-0.548
			c-2.991-0.274-5.127-1.28-9.697,0.575c-1.088,0.523-2.047,0.965-2.885,1.315c-0.794,0.431-1.511,0.701-2.14,0.862
			c-1.151,0.458-2.108,0.311-2.755-0.507c-0.641-0.822-0.908-2.362-0.287-3.857c0.567-1.54,2.206-2.783,4.437-2.647
			c2.222,0.208,5.477-0.266,8.783-0.223c1.643-0.023,3.278,0.087,4.73,0.208c1.444,0.202,2.712,0.406,3.606,0.734
			c0.445,0.179,1.593,0.478,3.266,0.868c1.654,0.472,3.848,1,6.33,1.835c4.989,1.573,11.214,4.034,17.253,6.967
			c12.149,5.771,23.309,13.573,25.157,14.917c1.855,1.354,6.567,4.201,10.905,7.216c4.352,2.983,8.301,6.155,9.206,7.055
			c0.903,0.899,2.859,2.405,4.712,3.997c1.882,1.554,3.619,3.255,4.31,4.102c0.648,0.893,1.765,1.562,2.99,2.162
			c1.194,0.641,2.54,1.163,3.622,1.663c1.066,0.534,1.602,1.136,1.857,1.579C275.794,261.54,275.777,261.837,275.777,261.837z" style="opacity: 1;"></path>
	</g>
</g>
</svg>
