<!--?xml version="1.0" encoding="utf-8"?-->
<!-- Generator: Adobe Illustrator 22.1.0, SVG Export Plug-In . SVG Version: 6.00 Build 0)  -->
<svg version="1.1" id="_x30_" xmlns="http://www.w3.org/2000/svg" xmlns:xlink="http://www.w3.org/1999/xlink" x="0px" y="0px" viewBox="0 0 800 411.5" style="enable-background:new 0 0 800 411.5;" xml:space="preserve">
<style type="text/css">
	.stblack{fill:#000000;}
</style>
<g>
	<path class="stblack" d="M596.5,356.5c1.8-1,6.7,0,8.7,0c28.9-0.1,57.8-0.2,86.7-0.2c8.7,0,17.5,0,26.2-0.1l0.3-0.2c9-29.6,18.1-59.2,27.1-88.8
		c11.2-36.6,22.3-73.2,33.5-109.8c0.6-2,1.4-3.5,0.8-5.3c-1.5-4.1-6.1-8.5-8.7-11.9c-12.6-17.4-25.3-34.8-37.9-52.3
		c-11.3-15.6-22.6-31.2-34-46.9c-3.6-5-7-9.7-13.6-9.9c-19.3-0.6-38.6-1.3-57.8-1.9c-37.7-1.3-75.3-2.5-113-3.8
		c-46.9-1.6-93.8-3.1-140.7-4.7c-47.1-1.6-94.2-3.1-141.3-4.7c-37.7-1.3-75.4-2.5-113.2-3.8c-19.3-0.6-38.7-1.3-58-1.9
		c-0.9,0-1.8-0.1-2.7-0.1l-0.3,0.2c-2.8,19.4-5.7,38.9-8.5,58.3c-5.6,38.4-11.2,76.8-16.8,115.3c-4.1,28.3-8.3,56.6-12.4,84.8
		c-0.2,1.7-1.1,4.3-0.9,6c0.3,2,2.9,3.7,4.5,5c11.6,10.3,23.3,20.6,34.9,30.8c13.6,12,27.1,23.9,40.7,35.9
		c4.3,3.8,10.1,10.8,16.1,11.2c5.4,0.4,11.1,0,16.5,0c11.2,0,22.5-0.1,33.7-0.1c33.9-0.1,67.8-0.2,101.7-0.3
		c40.2-0.1,80.4-0.2,120.6-0.3c35.1-0.1,70.3-0.2,105.4-0.3c18.5-0.1,37-0.1,55.6-0.2c11.3,13.4,22.5,26.7,33.8,40.1
		c1.2,2.4,7.7,4.8,7.7,4.5c1.3-12.1,2.7-24.2,4-36.3c0.2-2.2,0.1-5.1,0.8-7.2C596.6,356.2,595.7,356.9,596.5,356.5z M591.7,350.8
		c-1,0-2,0-3,0l-0.3,0.2c-1.5,13.6-3,27.2-4.5,40.8c-9.4-11.1-18.8-22.2-28.1-33.3c-2.8-3.3-5.7-7-10.3-7.5c-2.1-0.2-4.4,0-6.5,0
		c-29.1,0.1-58.3,0.2-87.4,0.2c-46.7,0.1-93.4,0.3-140.1,0.4c-44.6,0.1-89.2,0.3-133.9,0.4c-15.4,0-30.7,0.1-46.1,0.1
		c-6.8,0-14.4-0.8-21.2-0.1c-24.2-21.4-48.4-42.7-72.7-64.1c-3.1-2.8-6.3-5.5-9.4-8.3c3.2-21.9,6.4-43.8,9.6-65.7
		c6.1-41.6,12.1-83.1,18.2-124.7c2.4-16.7,4.9-33.3,7.3-50c0.8-5.3,1.5-10.5,2.3-15.8c0.2-1.6,0-5.9,1.1-7.2c0.2-0.3-0.3,0,1.1-0.1
		c1.8-0.2,3.8,0.1,5.6,0.2c7.6,0.3,15.3,0.5,22.9,0.8c27.8,0.9,55.6,1.8,83.4,2.8c39.1,1.3,78.2,2.6,117.3,3.9
		c43.3,1.4,86.6,2.9,129.9,4.3c41.1,1.4,82.2,2.7,123.3,4.1c31.8,1.1,63.6,2.1,95.4,3.2c15.3,0.5,30.6,1.6,45.9,1.6
		c19,26.2,38,52.4,57,78.6c5.3,7.3,10.6,14.7,16,22c2.4,3.3,6.3,7.1,7.9,10.9c0,0.1-0.1,0.2-0.2,0.5c-0.3,1.3-0.8,2.7-1.2,4
		c-1.7,5.6-3.4,11.2-5.1,16.8c-12.4,40.6-24.8,81.3-37.2,121.9c-4.9,16.1-9.8,32.3-14.8,48.4c-0.8,2.6-1.3,8.1-3.1,10.2l-0.2,0.2
		c-0.1,0-0.3,0-0.6,0.1c-1.7,0.5-4.3,0-6.1,0C666.4,350.6,629,350.7,591.7,350.8z"></path>
</g>
</svg>
