<!--?xml version="1.0" encoding="utf-8"?-->
<!-- Generator: Adobe Illustrator 25.2.3, SVG Export Plug-In . SVG Version: 6.00 Build 0)  -->
<svg version="1.1" id="_x30_" xmlns="http://www.w3.org/2000/svg" xmlns:xlink="http://www.w3.org/1999/xlink" x="0px" y="0px" viewBox="0 0 800 444.8" style="enable-background:new 0 0 800 444.8;" xml:space="preserve">
<style type="text/css">
	.stblack{fill:#000000;}
</style>
<g>
	<path class="stblack" d="M722.8,380.1c-0.1,3.6-0.3,7.1-0.6,10.8c-0.3,2.8-0.5,5.6-0.6,8.5l-0.1,4.2c0,1.4,0,2.9-0.1,4c-0.3,4.7-2.2,9.3-5.4,12.7
		c-3.2,3.4-7.6,5.4-12.2,5.4l-17.9,0c-5.9-0.1-12.1,0-17.8-0.1c-2.9-0.1-5.7-0.3-8.6-0.7c-2.9-0.4-6-0.8-9.1-1
		c-6.2-0.4-12.2-0.3-18.4,0c-3.1,0.2-6.1,0.5-9,0.7c-2.9,0.2-5.8,0.3-8.7,0.4l-17.9,0.1c-6,0.1-11.9,0.1-17.9,0.1
		c-3,0-5.9-0.1-8.8-0.2l-8.9-0.5c-2.7-0.6-5.4-0.9-8.7-0.9c-1.3,0-2.6,0-3.8,0.1c-1.2,0-2.3,0.1-3.5,0.1c-1.8,0-3.2,0-4.7-0.2
		c-1.7-0.2-3.1-0.3-4.4-0.4c-2.8-0.3-4.8-0.5-7.4-0.4c-1.1,0-2.3,0.1-3.7,0.2c-2.3,0.2-4.1,0.5-5.8,0.8c-1.8,0.3-3.4,0.5-5,0.6
		c-0.9,0-1.8,0-2.8-0.1c-2.9-0.3-6.2-0.5-8.7-0.6c-2.5-0.1-4.3-0.1-4.4-0.1l-0.1,0c-4.2,0-8.4-0.1-12.6-0.3c-4.8,0-9.4-0.2-14.4-0.4
		l-0.1,0c0,0-2,0-4.7,0c-2.8,0-6.3,0.1-9.7,0.2c-6.7,0.2-12,0.4-12,0.4c-5,0.2-9.9,0.3-14.8,0.3c-5.7,0.4-11.6,0.7-17.3,1.1
		c-4.3,0.1-8.5,0.1-12.7,0.2c-0.8,0-1.5,0-2.1,0l-22.1,0.2l-11,0.1c-3.6,0-7.2,0-10.8-0.3c-3.5-0.2-7.3-0.6-11.1-0.7
		c-3.8-0.1-7.6-0.1-11.2-0.1l-22.1,0.2c-7.5,0-14.9,0-22.3-0.3c-7.6-0.3-15.1-0.3-22.7-0.1c-3.8,0.1-7.6,0.3-11.3,0.4
		c-3.7,0.1-7.4,0.2-11.1,0.2c-3.8,0-7.6,0.1-11.5,0.4c-3.9,0.3-7.5,0.7-11.1,0.9c-4.4,0.1-8.8-0.1-13.3-0.2l-13.4-0.5
		c-4.8-0.7-8.5-0.9-12-0.9c-3.7,0-6.8,0.3-10.7,0.5c-0.7,0-1.5,0.1-2.3,0.1c-1.6,0.1-3.2,0.1-4.8,0c-2.1-0.1-4-0.3-5.9-0.5
		c-1.9-0.2-3.8-0.3-5.9-0.3c-1.7,0-3.3,0.1-4.9,0.2c-0.9,0-5.9,0.1-11.3-0.1c-3.6-0.2-6.6-0.3-9.2-0.5c-2.1-0.1-3.7-0.2-5.2-0.3
		c-2-0.1-3.5-0.2-5.2-0.2c-2.1,0-4.3,0.2-7.5,0.7c-1.2,0.2-2.8,0.3-4.8,0.5c-4.5,0.3-10.2,0.1-15.4-0.2c-4.5-0.3-8.4-0.5-11.1-0.5
		c-0.2,0-0.3,0-0.4,0c-7.4,0.1-13.4,0.3-18.2,0.5c-2.9,0.4-6-1.1-8-1.8c-2.4-1.7-4.6-3.7-6.8-5.9c-1.1-1.1-2.2-2.2-3.2-3.3
		c-1-1.1-1.9-2.2-2.7-3.3c-2.9-3.7-5-8.1-6-12.7c-0.5-2.3-0.8-4.7-0.8-7.1c0-1.2,0-2.4,0.1-3.6l0.1-0.9l0.1-0.7c0-0.3,0-0.5,0-0.7
		l0.1-2.1c0-3-0.1-6-0.4-9c-0.3-3-0.7-5.9-1-8.7c-0.6-5.5-0.8-11.2-0.7-16.9c0.2-2.4,0.5-4.7,0.9-7.1c0.4-2.4,0.8-4.9,1.1-7.4l0-0.1
		c0.4-7,0-12.6-0.2-16.6c-0.3-4.1-0.6-6.7-0.7-7.4c-0.2-5.7-0.3-11.2-0.3-16.9c0-5.7-0.2-11.5-0.4-17.1c0-1.3,0.2-2.6,0.4-4
		c0.3-1.6,0.6-3.5,0.5-5.4c0-3.7-0.2-8.3-0.3-12c-0.1-2.3-0.2-4.2-0.2-5.3l0.2-2.8c0.1-1.7,0.2-3.5,0.2-5.2c0-2.1-0.1-4.1-0.3-6.2
		l-0.8-9.2c0-4-0.2-8-0.3-11.9l0.2-2.8c0.3-3.1,0.4-6.2,0.4-9.3c0-2.1,0-4.2-0.1-6.3l-0.2-4.3c-0.1-2.3,0-4.7,0.1-7.1
		c0.4-3.6,0.6-7.2,0.9-10.7c0.1-1.7,0.2-3.5,0.2-5.2l0-0.6c0-2.8-0.2-5.7-0.5-8.5l0-0.4c-0.2-2.3-0.4-4.6-0.4-7
		c0-5.4-0.1-10.9,0-16.2c0.1-5.3,0.4-10.7,0.5-16.3c0.1-0.8,0.3-4.7,0.5-9.6c0.2-4.9,0.4-11,0.4-16.3c0-3.3-0.4-6.9-0.6-9.2
		c-0.1-0.8-0.2-1.7-0.2-2c0-3.8,0-7.7-0.2-11.6c-0.2-3.9-0.4-7.5-0.3-11.2c0.2-1.9,0.4-3.7,0.6-5.6l0-2.4c-0.1-0.1,0.1-1.1,0.2-1.8
		c0.2-1.5,0.6-3,0.9-4.5c1.7-5.6,4.3-10.7,8.3-14.4c1-0.9,2.1-1.8,3.2-2.5l1.8-1.1l1.9-1c2.6-1.3,5.3-2.3,8.1-3.1
		c1-0.3,2.6-0.8,4.6-1.1c2.7-0.6,6.2-1,9.3-1.2c2.8-0.1,5.1,0,6.3,0.1c1.1,0.1,3.1,0.2,6.1,0.5c3,0.3,6.6,1,9.7,1.3
		c1.9,0.2,3.5,0.3,4.3,0.3c3.6,0.2,7.1,0.2,10.6,0.1c3.5-0.1,7.1-0.3,10.6-0.7c3.4-0.4,6.7-0.6,10-0.7c3.3-0.1,6.8,0,10.3-0.1
		c3.5,0,7-0.2,10.4-0.4c3.4-0.2,6.8-0.3,10.2-0.3c3.4,0,6.8,0,10.1,0.1c3.4,0.1,6.6,0.4,10.1,0.8c4.7,0.6,9.5,0.8,14.2,0.9
		c4.7,0.1,9.5,0,14.2-0.4c4.6-0.4,8.9-0.6,13.5-0.5c4.5,0.1,9.1,0.2,13.6,0.5c1.9,0.1,7.9,0.3,13.6,0.1c5.7-0.2,11.1-0.5,12-0.6
		c3.8-0.1,7.7-0.4,11.4-0.6c3.7-0.2,7.4-0.3,11.1-0.3c3.2,0.2,6.3,0.4,9.4,0.6l9.5,0.9c3-0.1,6-0.3,9-0.5c3.9,0.3,7.7,0.5,11.6,0.6
		l9.7-0.8c4.1-0.1,8.3-0.1,12.4,0c4.1,0.1,8.1,0.2,12.2,0.7c4.1,0.4,8.6,0.8,12.8,0.9c4.3,0.1,8.4,0.1,12.5,0.3
		c3.1,0,6.1,0.2,9.3,0.3c3.2,0.1,6.4,0.1,9.6,0.1c3.1,0,6.4-0.1,9.7-0.3c3.3-0.2,6.6-0.7,9.7-1.2c3.9-0.8,7.7-1.2,11.7-1.4
		c2.9,0,5.8,0.1,8.7,0.3c2.9,0.2,5.7,0.5,8.7,0.9l0.3,0c0.3,0,0.6,0,1,0.1c1.4,0,2.8,0,4.2,0l0.3,0c0.3,0,0.7,0.1,1,0.2
		c0.9,0.3,1.9,0.5,3,0.5c5.4,0.2,10.5,0.3,15.9,0.3c8.5-0.6,16.7-1,25.1-1.2c9.8,0,19.5,0.2,29.5,0.1c0.6,0,1.2,0,1.8,0
		c1.7,0.1,3.4,0.2,5.1,0.3c0.9,0,1.9,0,2.8-0.1c1.1-0.1,2.2-0.3,3.3-0.5c1.3-0.3,2.6-0.5,3.9-0.8c4.1-0.1,8.3-0.2,12.4-0.1
		c4.1,0.1,8.1,0.4,12.4,0.8c4.3,0.3,8.6,0.4,12.8,0.4c4.2,0,8.4,0,12.5,0.1c1,0,2.9,0.2,5,0.3c3.3,0.3,7.4,0.5,10.8,0.5
		c4,0,6.5-0.4,7.7-1.2c0,0,0.2-0.1,0.8-0.2c0.6-0.1,1.6-0.2,3.2-0.3c3.1-0.2,6.9-0.4,9.8-0.5c2,0,3.5,0,4.5,0
		c3.3-0.1,6.7-0.1,10.1,0c3.4,0.1,6.6,0.3,10,0.7c3.4,0.4,7,0.6,10.5,0.7c3.5,0.1,7,0,10.4,0c6.8,0,13.5,0.3,20.1,1.3
		c6.5,1,13.1,2.6,18.3,5.7c3.5,2.1,5.9,4.9,6.6,8.2c0.1,0.4,0.2,0.8,0.2,1.3l0.1,1.3l-0.1,3.4c-0.1,2.3-0.2,4.5-0.3,6.8
		c-0.3,4.4-0.8,9.2-1,13.9c-0.2,4.7-0.3,9.4-0.2,14.2c0.1,1,0.2,3,0.5,5.5c0.3,2.4,0.8,5.2,1.1,7.8c0.6,5.3,0.8,10.6,0.8,11.7
		c-0.1,1.2-0.3,6.8-1.3,12.7c-0.4,3-0.8,6.3-1,9c-0.2,2.7-0.3,5-0.3,6.2v0.1c0.2,4.4,0.4,8.8,0.7,13.3c0.4,4.4,0.7,8.7,0.9,13
		c0.2,15.8-0.7,31.6,0.1,47.9c0.2,4.1,0.5,7.9,0.6,11.8c0.1,3.9,0.1,7.9,0.1,11.8c0,3.9-0.2,7.8-0.4,11.8c-0.2,4-0.3,8.1-0.3,12.1
		c-0.4,3.7-0.7,7.5-0.8,11.4c0.3,1.2,0.6,2.4,0.9,3.5l0.2,3.4c0.5,2.3,1,4.6,1.3,6.9c-0.3,3.9-0.8,7.8-1.3,11.8l1.1,19.7
		c0,5.5,0,11-0.1,16.5c-0.2,5.4-0.4,11.1-0.4,16.7l0,5.3c2.2,1,4.6,2,7.1,2.8c0-5.3,0-10.6,0.1-15.8c0.2-5.9,0.4-12,0.4-18l0-17.9
		c0.5-2.7,0.7-5.3,0.7-8.6c0-1.3,0-2.5-0.1-3.7c0-1.2,0-2.3-0.1-3.5c0-1.8,0-3.3,0.1-4.7c0.1-1.7,0.2-3.2,0.3-4.5
		c0.2-2.9,0.2-5,0-7.6c-0.1-1.1-0.2-2.3-0.4-3.6c-0.3-2.2-0.6-4-0.9-5.6c-0.3-1.7-0.5-3.2-0.5-4.9c0-0.9,0.1-1.8,0.2-2.7
		c0.4-2.8,0.8-5.9,1.2-8.4c0.3-2.5,0.5-4.3,0.5-4.5l0-0.1c0.3-4.4,0.5-8.7,0.7-13.1c0-4.9-0.1-10-0.5-15l0-0.1c0,0-0.2-1.9-0.4-4.5
		c-0.2-2.6-0.4-6-0.5-9.3c-0.1-3.2-0.2-6.2-0.2-8.3c0-2.1,0-3.4,0-3.5l0.2-15c-0.3-5.8-0.6-11.6-1.2-17.5c-0.2-4.3-0.4-8.5-0.4-12.6
		c0-0.8,0-1.5,0-2.1c-0.1-3.7-0.1-7.3,0-10.8c0.1-3.6,0.5-7,0.8-10.8c0.3-3.8,0.4-7.6,0.4-11.4c0-3.8-0.1-7.5-0.4-11.3
		c-0.3-3.9-0.9-7.5-1.1-11c-0.3-3.5-0.4-7.1-0.4-10.7c0-3.6,0-7.3,0.2-10.9c0.2-3.6,0.4-7.4,0.5-11.1c0.1-1.9,0.1-3.8,0.1-5.7
		c0-1.7,0-4.2-0.5-6.4c-0.6-2.3-1.6-4.4-3-6.3c-1.4-1.8-3-3.4-4.8-4.7c-3.5-2.5-7.3-4.1-11.1-5.3c-3.8-1.2-7.6-2.1-11.5-2.7
		c-7.7-1.2-15.4-1.5-23-1.4c-3.8,0-7.4,0-11.1-0.1c-3.6-0.1-7.2-0.6-11-0.9c-4.6-0.5-9.2-0.8-13.8-0.9c-4.5-0.1-9.3,0-13.9,0.4
		c-4.7-0.1-8.1-0.2-11.6-0.2c-3.6,0-6.8,0.3-10.8,0.7c-0.7,0.1-1.5,0.1-2.3,0.2c-1.6,0.1-3.2,0.2-4.8,0.2c-2.1,0-4-0.2-5.8-0.3
		c-1.9-0.1-3.8-0.3-5.9-0.3c-1.7,0-3.3,0.1-4.9,0.2c-0.9,0-5.8,0.2-11.2-0.3c-3.6-0.3-6.6-0.6-9.2-0.8c-2.1-0.2-3.8-0.3-5.3-0.4
		c-2-0.1-3.5-0.2-5.2-0.2c-2.1,0-4.3,0.2-7.6,0.7c-1.2,0.2-2.9,0.4-4.9,0.5c-4.6,0.4-10.1,0.3-15.3,0c-4.5-0.3-8.4-0.5-11.1-0.5
		c-0.2,0-0.3,0-0.4,0c-14.7,0-24.3,0.6-29.1,1.7c-6.5-0.1-12.7-0.2-19.1-0.5c-2.7,0-5.3,0-7.9-0.2c-2.6-0.1-5.1-0.4-7.8-0.6
		c-2.7-0.3-5.5-0.5-8.3-0.6c-2.8-0.1-5.5-0.1-8.3-0.1c-3,0.1-6,0.3-9,0.7c-3,0.4-5.9,1-8.6,1.3c-5.4,0.8-11.1,0.9-16.8,0.9
		c-4.8-0.3-9.6-1-14.6-1.4l-0.1,0c-3.4-0.1-6.5-0.1-9.3,0c-2.6,0.1-5,0.1-7,0.1c-3.8,0-6.4,0-7.2,0c-5.7-0.6-11.6-0.8-17.3-0.7
		c-5.7,0-11.5,0.2-17.1,0.4c-1.3,0-2.6-0.2-4-0.4c-1.6-0.3-3.5-0.6-5.4-0.6c-3.6,0-8.1,0.1-11.8,0.2c-2.2,0-4.2,0-5.2-0.1l-2.8-0.3
		c-1.8-0.2-3.6-0.3-5.3-0.4c-2.1,0-4.2,0-6.2,0.2c-3.1,0.3-6.2,0.5-9.3,0.9c-4,0.1-8,0.5-11.9,0.6l-2.8-0.2c-3-0.2-6.2-0.4-9.3-0.4
		c-2.1,0-4.2,0-6.3,0.1l-4.3,0.1c-2.3,0-4.7,0-7.1-0.1c-3.6-0.3-7.1-0.6-10.7-0.8c-1.8-0.1-3.6-0.1-5.3-0.1l-0.6,0
		c-2.9,0.1-5.9,0.5-8.6,1l-0.4,0.1c-2.3,0.4-4.5,0.7-6.8,0.8c-5.3,0.2-10.7,0.2-15.9-0.1c-2.6-0.1-5.2-0.4-8-0.7
		c-2.8-0.3-5.6-0.5-8.4-0.5c-0.8-0.1-4.7-0.4-9.7-0.5c-5-0.2-11.3,0-16.4,0.2c-3.2,0.1-6.7,0.5-9.1,0.8c-0.8,0.1-1.7,0.2-2,0.2
		c-3.9,0-7.8,0.2-11.7,0.6c-3.9,0.4-7.5,0.7-11.2,0.8c-1.9-0.1-3.8-0.2-5.6-0.4c-3.1,0.1-6.2,0.2-9.3,0c-2.9-0.3-5.9-0.9-9.2-1.3
		c-3.3-0.4-6.5-0.6-9.7-0.6c-6.5-0.1-13.2,0.7-19.6,2.5c-1.1,0.3-3,0.9-5,1.8c-3,1.2-6.5,3-9.4,5.1c-2.8,2-4.5,3.8-5.5,4.8
		c-0.9,1-2.5,2.7-4.2,5.7c-1.8,3.1-3.2,6.8-4,9.8c-0.5,1.8-0.9,3.4-1.1,4.2l-0.6,2.9l-0.2,2.9c-0.1,1.7-0.1,3.5-0.2,5.3
		c-0.1,3.5,0.1,7.1,0.2,10.6c0.4,6.8,0.3,13.5,0.3,20.5L22,108.5c0,3.4,0,6.8-0.1,10.2c-0.1,3.4-0.3,6.8-0.4,10.3
		c-0.5,9.4-0.5,18.6-0.6,27.9l-0.2,13.8c-0.1,4.6-0.2,9.1-0.6,13.6c-0.1,1.9-0.2,8,0,13.7c0.2,5.7,0.5,11,0.6,12
		c0.2,7.7,0.4,15,0.4,22.6l-1,19.1l0.7,8.8c-0.2,3.8-0.5,7.7-0.6,11.6l0.8,9.7c0.1,4.1,0,8.3,0,12.5c0,4.2,0,8.5,0.1,12.7
		c0.1,4.2,0.2,8.3,0.2,12.5c0,4.2,0,8.3-0.3,12.3c-0.1,3-0.4,6-0.7,9.2c-0.2,3.2-0.3,6.5-0.3,9.7c0,3.2,0.1,6.4,0.2,9.7
		c0.2,3.2,0.5,6.5,0.9,9.6c0.6,3.9,0.9,7.8,1,11.8l-0.1,2.2l-0.2,2.1c-0.2,1.6-0.2,3.2-0.2,4.9c0,3.3,0.4,6.5,1.2,9.7l0.1,0.3
		c0.1,0.3,0.2,0.7,0.3,1c0.5,1.4,1.2,2.8,1.9,4.1l0.1,0.3c0.1,0.3,0.3,0.7,0.3,1c0.2,1,0.6,2.1,1.1,3.1c1.4,2.5,3.1,4.9,5.1,7.1
		c1,1.1,1.9,2.1,2.9,3c1,1,1.9,1.9,2.9,2.9c3.5,2.8,7.1,5.5,11.6,7.5c1.1,0.5,2.3,0.9,3.7,1.2c0.6,0.2,1.3,0.3,2,0.4
		c0.7,0.1,1.5,0.1,2.1,0.1l6.3-0.3l29.5,0c0.6,0,1.2,0,1.8,0.1c1.7,0.1,3.4,0.3,5.1,0.4c0.9,0.1,1.9,0.1,2.8,0
		c1.1-0.1,2.3-0.2,3.4-0.4l4-0.8c4.1-0.1,8.3-0.1,12.4-0.1c4.2,0,8.3,0.2,12.5,0.3c4.2,0.2,8.5,0.3,12.7,0.3c4.2,0,8.3,0,12.5,0.2
		c1,0,2.9,0.2,5,0.5c3.3,0.4,7.5,0.8,10.9,0.8c4,0,6.4-0.3,7.6-1.1c0,0,0.2-0.1,0.8-0.2c0.6-0.1,1.6-0.1,3.2-0.1
		c3,0,6.8,0.3,9.8,0.5c2,0.1,3.7,0.3,4.6,0.3l10.4,0c3.5,0,7-0.1,10.6-0.4c3.6-0.3,6.9-0.6,10.2-0.8c3.3-0.2,6.7-0.2,10.1-0.2
		c3.5,0,7-0.1,10.4-0.2c3.5-0.1,6.9-0.3,10.3-0.4c6.8-0.1,13.7-0.1,20.4,0.1c4.5,0.2,9.3,0.5,13.9,0.6l13.9,0.3l13.8,0.2
		c4.6,0.1,9.3,0.1,13.7,0.3c0.9,0,2.8,0.1,5.1,0.1c2.3,0.1,5.2,0.2,7.9,0.3c5.7,0.2,11.2-0.1,12.3-0.1c2.4,0.1,23.2,1.1,27.9,1h0.1
		c8.7-0.3,17.6-0.8,26.2-1.2c7.9,0,16,0,23.9-0.3c7.9-0.3,15.8-0.3,23.7-0.1l11.9,0.4c4,0.1,8,0.1,12.1,0.1c4,0,8.1-0.1,12.1-0.3
		c4-0.2,7.8-0.4,11.8-0.4l11.1,1l3.5-0.7l3.5,0l7.1-1.1c3.9,0.4,7.9,0.8,11.8,1.3c3.2-0.2,6.4-0.3,9.7-0.3c3.2,0,6.5,0.1,9.9,0.1
		c5.7,0.2,11.2,0.2,16.8,0.2l16.6-0.1c5.5,0,11.1,0.1,16.8-0.3c2.8-0.2,5.7-0.4,8.4-0.7c2.7-0.2,5.4-0.4,8.1-0.4
		c5.5-0.1,10.9-0.1,16.1,0.5c2.6,0.3,5.4,0.7,8.3,1c2.9,0.3,5.7,0.4,8.6,0.4l33.3,0.1c3.5,0,7-0.8,10.2-2.3c3.2-1.5,5.9-3.8,8.2-6.4
		c2.2-2.6,3.9-5.7,5-8.9c0.3-0.8,0.5-1.6,0.7-2.5c0.2-0.8,0.4-1.7,0.5-2.5c0.1-0.8,0.2-1.7,0.2-2.6l0.1-1.3l0-1.1
		c0-2.9,0.1-5.9,0.3-8.8c0.2-2.9,0.5-5.8,0.7-8.9c0.2-3,0.3-6,0.4-9C727.4,379.3,725,379.9,722.8,380.1z"></path>
	<path class="stblack" d="M721,382.1c1,0,2.1,0.2,3.4,0.2c1,0,2.1-0.4,3.3-0.5c1.1-0.1,2.1-0.3,3.3-0.5c0.5-0.1,0.9-0.2,1.4-0.3
		c0.2-0.1,0.5-0.3,0.7-0.4c0.5-0.3,1.4-0.4,2.1-0.6c0.7-0.1,1.3-0.2,1.3-0.2c0.5-0.2,1.1-0.4,1.6-0.6c0.7-0.3,1.2-0.8,1.8-1.3
		l0.2-0.1l0.3-0.3l0.3-0.2c1-0.4,2.2-0.4,3.1-0.9c0.9-0.5,1.6-1.5,2.5-2c0.9-0.5,2-0.8,2.9-1.3c0.9-0.5,1.8-1.2,2.7-1.7
		c0.9-0.5,2-0.8,2.9-1.4c0.9-0.6,1.6-1.6,2.5-2.2c0.9-0.6,1.8-1.3,2.7-1.9c0.9-0.6,1.8-1.2,2.7-1.8c0.7-0.5,1.3-0.9,2-1.4
		c0.8-0.6,1.6-1.1,2.4-1.7c0.8-0.6,1.7-1.2,2.6-1.8c0.9-0.6,1.8-1.2,2.5-1.8c1.6-1.2,3.1-2.5,4.6-3.6c0.4-0.4,0.9-0.7,1.4-1.1l0.1,0
		l1.5-1.2l-1.2,0c-1.1,0-2.6,0.1-4,0.3c-1.4,0.1-2.7,0.3-3.8,0.3c-2,0-3.2-0.6-5.5-0.7c-1.1,0-2.2,0.1-3.3,0.2
		c-0.5,0.1-1,0.1-1.5,0.1l-0.7,0h-0.4c-1-0.1-2-0.4-3-0.5c-1-0.1-2-0.1-3.1-0.2c-1-0.1-2-0.5-3-0.7c-1.1-0.1-2.2,0.2-3.2,0.1
		c-1.1-0.2-2.1-0.3-3.1-0.5c-1.1-0.1-2.1-0.4-3.1-0.6c-1-0.2-2.1-0.5-3.1-0.7c-1-0.2-2-0.8-3-1c-1-0.3-2-0.6-3-0.9
		c-0.6-0.2-1.2-0.4-1.8-0.6c0,0-1.5-0.5-2.1-0.6c-1.3-0.3-2-0.7-3.1-1c-0.7-0.2-1.3-0.3-1.9-0.4c-0.6-0.1-1.1-0.3-1.6-0.5
		c-1.1-0.6-2.7,0.4-3,1c-0.4,0.6-0.5,2.3,1,3.1c1,0.6,1.8,1,3.1,1.8c1,0.6,2.4,1.5,3.7,2.1c1,0.5,2.3,0.6,3.4,1.1
		c0.2,0.1,0.5,0.2,0.8,0.2c0.2,0,0.5,0.1,1,0.2c0.7,0.1,1.3,0.3,2,0.5c1,0.3,2.1,0.6,3.2,0.9c1.1,0.3,2.1,0.7,3.2,1
		c1.1,0.2,2.2,0.1,3.3,0.3c1.1,0.2,2.1,0.7,3.2,0.8c1.1,0.1,2.1,0.7,3.2,0.9c1.1,0.2,2.2-0.5,3.3-0.4c1.1,0.1,2.1,0.5,3.2,0.6
		c1.1,0.1,2.1,0.5,3.2,0.6l0.4,0l0,0l0.1-0.1l0.3-0.2c0.2,0,0.4,0,0.5,0c0.2,0,0.4,0,0.6,0l0.1,0l0,0.1c-0.3,0.1,0,0-0.1,0.1
		c-0.2,0.1,0.3,0.1,0,0.3c-0.2,0.1-0.5,0.3-0.7,0.4l-0.4,0.1l-0.2,0c-0.1,0-0.4,0.2-0.6,0.4c-0.9,0.6-1.5,1.5-2.4,2.1
		c-0.9,0.6-1.9,0.9-2.8,1.5c-0.9,0.6-2,0.8-2.9,1.3c-0.9,0.5-1.4,1.7-2.2,2.3c-0.9,0.5-1.9,0.9-2.8,1.4c-0.9,0.5-2,0.7-2.8,1.2
		c-0.9,0.5-1.7,1.3-2.5,1.8c-0.9,0.5-1.8,1-2.7,1.4c-0.9,0.5-1.9,0.9-2.7,1.3l-0.3,0.1c-0.3,0.1-0.6,0.2-0.9,0.3c-1,0.3-1.9,1-3,1.3
		c-0.2,0.1-0.5,0.1-0.7,0.2c-0.5,0.2-2.7,1.4-3.2,1.6c-0.3,0.1-0.5,0.3-0.9,0.4c-0.6,0.2-1.2,0-2,0.3c-1,0.4-2.7,0.8-3.5,0.8
		c-1,0-2,1.4-2.1,2.1C718.6,380.9,719.4,382.1,721,382.1z"></path>
</g>
</svg>
