<!--?xml version="1.0" encoding="utf-8"?-->
<!-- Generator: Adobe Illustrator 25.2.3, SVG Export Plug-In . SVG Version: 6.00 Build 0)  -->
<svg version="1.1" id="_x33_" xmlns="http://www.w3.org/2000/svg" xmlns:xlink="http://www.w3.org/1999/xlink" x="0px" y="0px" viewBox="0 0 800 476.901" style="enable-background:new 0 0 800 476.901;" xml:space="preserve">
<style type="text/css">
	.stblack{fill:#000000;}
	.st0{fill:#FFFFFF;}
</style>
<g>
	<path class="st0" d="M723.803,35.104v354.713c0,7.905,3.189,15.476,8.844,21l41.715,40.745c3.534,3.453,1.09,9.452-3.85,9.452
		H43.181c-10.611,0-19.214-8.602-19.214-19.214l0.001-406.695c0-10.611,8.602-19.214,19.214-19.214h661.407
		C715.201,15.89,723.803,24.492,723.803,35.104z"></path>
	<path class="stblack" d="M727.77,389.816V35.104c-0.003-12.804-10.377-23.179-23.181-23.181H43.182c-12.804,0.002-23.179,10.377-23.181,23.181
		L20,441.799c0.003,12.804,10.378,23.179,23.181,23.181h727.33c1.374,0.003,2.702-0.287,3.879-0.812
		c1.771-0.787,3.181-2.08,4.132-3.597c0.953-1.52,1.476-3.279,1.478-5.111c0.016-2.361-0.94-4.877-2.867-6.737l-41.714-40.745
		C730.528,403.201,727.77,396.652,727.77,389.816z M772.066,455.459c0.007,0.388-0.174,0.847-0.448,1.132
		c-0.136,0.144-0.284,0.251-0.452,0.325c-0.171,0.074-0.364,0.126-0.654,0.129H43.181c-4.223-0.003-8.008-1.701-10.781-4.467
		c-2.765-2.772-4.463-6.558-4.466-10.78l0.001-406.695c0.002-4.223,1.7-8.009,4.465-10.782c2.772-2.765,6.558-4.463,10.781-4.466
		h661.408c4.223,0.003,8.01,1.701,10.781,4.466c2.765,2.772,4.464,6.558,4.466,10.782v354.713c0,8.973,3.62,17.567,10.04,23.837
		l41.715,40.745C771.972,454.793,772.049,455.075,772.066,455.459z"></path>
</g>
</svg>
