<!--?xml version="1.0" encoding="utf-8"?-->
<!-- Generator: Adobe Illustrator 25.2.3, SVG Export Plug-In . SVG Version: 6.00 Build 0)  -->
<svg version="1.1" id="_x30_" xmlns="http://www.w3.org/2000/svg" xmlns:xlink="http://www.w3.org/1999/xlink" x="0px" y="0px" viewBox="0 0 800 478.914" style="enable-background:new 0 0 800 478.914;" xml:space="preserve">
<style type="text/css">
	.stblack{fill:#000000;}
	.st0{fill:#FFFFFF;}
</style>
<g>
	<path class="st0" d="M721.789,37.376v352.505c0,7.856,3.168,15.38,8.788,20.87l41.456,40.492c3.512,3.43,1.083,9.394-3.827,9.394
		H45.402c-10.545,0-19.094-8.549-19.094-19.094V37.376c0-10.546,8.549-19.094,19.094-19.094h657.292
		C713.24,18.281,721.789,26.83,721.789,37.376z"></path>
	<path class="stblack" d="M135.393,11.973c-3.485,0-6.308,2.822-6.308,6.308c0,3.484,2.824,6.308,6.308,6.308h29.469
		c3.484,0,6.308-2.824,6.308-6.308c0-3.486-2.824-6.308-6.308-6.308H135.393z"></path>
	<path class="stblack" d="M728.096,389.881l0.002-352.506c0.004-6.995-2.854-13.386-7.44-17.962c-4.578-4.588-10.969-7.445-17.963-7.44H221.442
		c-3.485,0-6.308,2.822-6.308,6.308c0,3.484,2.823,6.308,6.308,6.308v-0.002h481.253c3.551,0.005,6.707,1.421,9.041,3.746
		c2.325,2.334,3.742,5.49,3.746,9.042l-0.002,352.504c0.001,9.556,3.854,18.707,10.69,25.383l39.993,39.064H45.402
		c-3.551-0.005-6.708-1.422-9.042-3.746c-2.324-2.335-3.741-5.49-3.746-9.04V37.375c0.004-3.551,1.422-6.707,3.746-9.042
		c2.334-2.324,5.49-3.741,9.042-3.746h39.305c3.483,0,6.307-2.824,6.307-6.307c0-3.484-2.824-6.307-6.307-6.307l-39.305,0
		c-6.995-0.005-13.386,2.853-17.963,7.44C22.853,23.988,19.996,30.38,20,37.375v404.166c-0.004,6.994,2.853,13.385,7.44,17.961
		c4.577,4.588,10.968,7.444,17.963,7.44h722.806c1.687,0.003,3.345-0.354,4.814-1.011c2.213-0.984,3.968-2.598,5.147-4.477
		c1.18-1.884,1.828-4.058,1.832-6.337c0.001-1.473-0.279-2.99-0.876-4.436c-0.594-1.446-1.511-2.81-2.684-3.953l-41.454-40.491
		C730.58,401.935,728.096,396.036,728.096,389.881z"></path>
</g>
</svg>
